<?xml version="1.0" encoding="utf-8"?>
<!-- Generator: Adobe Illustrator 22.0.1, SVG Export Plug-In . SVG Version: 6.00 Build 0)  -->
<svg version="1.1" id="Layer_1" xmlns="http://www.w3.org/2000/svg" xmlns:xlink="http://www.w3.org/1999/xlink" x="0px" y="0px"
	 width="770px" height="378px" viewBox="0 0 770 378" style="enable-background:new 0 0 770 378;" xml:space="preserve">
<style type="text/css">
	.st0{fill:#D2D6D8;}
	.st1{opacity:0.8;fill:url(#SVGID_1_);}
	.st2{fill:none;stroke:#C4D600;stroke-width:2.1341;stroke-miterlimit:10;}
	.st3{fill:#94B9CD;}
	.st4{fill:#A1C6E1;}
	.st5{fill:#D9E6F4;}
	.st6{fill:#96AFC3;}
	.st7{fill:#AFB42B;}
	.st8{fill:#C4D600;}
	.st9{fill:#6387A7;}
	.st10{fill:#B6CBE8;}
	.st11{opacity:0.8;fill:url(#SVGID_2_);}
	.st12{fill:none;}
	.st13{fill:#B0E1EA;}
	.st14{opacity:0.8;fill:url(#SVGID_3_);}
	.st15{fill:#9D9A9A;}
	.st16{opacity:0.8;fill:url(#SVGID_4_);}
	.st17{fill:#B1A59C;}
	.st18{fill:#E6EE9C;}
	.st19{opacity:0.8;fill:url(#SVGID_5_);}
	.st20{opacity:0.8;fill:url(#SVGID_6_);}
	.st21{fill:#DFDDDD;}
	.st22{opacity:0.8;fill:url(#SVGID_7_);}
</style>
<g>
	<g>
		<path class="st0" d="M187.5,91C194.7,86.2,188.9,99,187.5,91L187.5,91z M181.7,91.5c2,0,3-1.2,2.7-2.7
			C183.8,89.1,178.4,91.5,181.7,91.5z M193.4,52.3c1.5-0.7,2.4-1.6,4.2-1.8c-2.7-2.5-6.4-2.1-9.8-2
			C187.8,51.9,190.1,53.2,193.4,52.3z M531.4,224.4c-1.3,1.6-0.4,10.5,3,7.4C536.3,230.1,532.1,225,531.4,224.4z M669.3,338
			c0.8,2.6,2.9,5.8,5.4,6.5c0.2-0.5,0.2-1.1,0-1.5c0.6,0,1.2,0,1.9,0c0.1-2.2,0.7-2.7,0.7-4.8C675.6,338.6,669.1,336.8,669.3,338
			C669.4,338.4,669.2,337.9,669.3,338z M676.2,334.8c0,1.1,1,1.9,1.9,2.1C678.1,335.2,677.4,334.8,676.2,334.8
			C676.2,334.9,676.4,334.8,676.2,334.8z M668,334.3c-1.2,0.6-0.4,1.6,0.4,1.9C668.6,336,668.8,334,668,334.3
			C667.9,334.3,668.2,334.2,668,334.3z M721.6,352.6c3.6,0,4.5-6.8,8.8-7.6c-1.9-4,5.3-3.4,0.1-6.6c-4.2-2.5-2.5,1.8-4.9,4.5
			c-2.2,2.4-6.3,3-7.8,5.8C716.6,350.8,717,353.2,721.6,352.6C721.7,352.6,721.5,352.6,721.6,352.6z M718.8,353.7
			c-0.4,0.3-0.5,0.5-0.8,0.9c0.6,0,1.2,0,1.8,0C719.9,354,719.8,353,718.8,353.7C718.7,353.8,719,353.6,718.8,353.7z M733.1,328.7
			c0,1.1,0.1,4,0.1,4.2c0-0.3-1.8-0.1-1.8,1.2c0,1.7,1.3-0.1,1.6,0.9c-0.1-0.1,1.8,4,2.9,3.7c0.4-0.1,1.5-2.1,2.1-2.8
			c3.3-3.1,5.6-6.9-1.1-5.7c0-1.8-0.8-4.7-2-1.9c-1.4-0.9-1.6-3.7-3.2-5.3C728.6,320,733.1,327.6,733.1,328.7z M710.9,289
			c1.7,2.6,3.2,4.8,6.8,5.1C717.4,292.6,712.4,289,710.9,289z M638.8,269.1c-2.8,0.5,1.4,1.1,2.5,1c0-0.3,0-0.6,0-0.9
			C640.5,269.2,637.9,269.2,638.8,269.1z M664,270.3c-3.3,4.1,1.2,14.2-6.3,12.2c0,0-6.8-4.4-6.9-4.7c-1.3-2.8,1.4-4.3,2.2-6.5
			c-3.8-0.5-7.5-2.4-11.1-2.4c0.7,0.6,0.6,1.1,1.9,1.9c-0.7-0.4-4.5,2.1-5.5,2.8c-3,1.9,1.7,2.3-3.4,3.3c-1.7,0.3-2.4-2-5.1-1
			c-2.2,0.8-2.5,3.8-5.1,3.8c0.4,0.8,0.5,2.1,0.9,2.9c-0.7,0-1.3,0-2,0c0-0.5,0-1,0-1.5c-3-0.2-4,6.1-7.3,7.7
			c-2.5,1.2-6.5,1.6-9.3,2.7c-1.2,0.4-2,4.5-3.5,1.1c-1.2,3.7-1.5,5.9,0.6,9.6c-4.5-2,0.4,4.9,1.3,7.3c1.9,5,3.7,8.2-0.1,11.5
			c2.6,0,4.1,2.9,7.4,2.3c1.9-0.3,2.8-2.5,4.9-3c1.7-0.4,3.4,1.2,4.8,0.8c1.5-0.4,1.5-1.6,2.8-2.1c1.2-0.5,2.5-1.8,3.9-2.4
			c0.9-0.4,1.8,1,2.9,0.6c4-1.5,8.5-3.8,13.2-1.4c2.8,1.5,5.5,12.2,8.5,2.6c2.1,0.7-0.1,2.2,0.2,4c2.6-1.6,1.6,0.6,1.4,3
			c4.3-0.8,2.4,3,5.6,5.6c0.4,0.3,4.3,1.5,5.1,1.6c2.2,0.1,1.5-2.2,2.9-2.2c1.4,0,1.4,2.6,2.3,2.4c4.5-0.9,9.2-2.6,10.8-6.8
			c1.1-2.7,1.3-5.5,3-8.4c3.4-5.8,4-11.9,0.9-18.1c-0.7-1.4-1.6-1.9-2.7-3c-0.7-0.8-0.7-2.2-1.2-2.8c-0.2-0.2-2.5-0.8-3-1.4
			c-0.7-0.7-0.7-2.4-1.4-3.1c-1.1-1-3.7-1.8-4.5-2.8c-2-2.5-2.6-7.4-4.1-9.8c-0.5-0.8-1.9-1.3-2.6-2.5c-0.9-1.4-0.4-4.8-2.5-5.3
			C664.1,269.3,664.1,269.8,664,270.3z M701.6,265.9c0.6,1,1.3,0.7,2.1,0.3C703.4,265.1,701,264.5,701.6,265.9
			C701.7,266,701.6,265.8,701.6,265.9z M690.7,258.4c0,0.9,2.2,2.1,2.8,2c-0.5-1.4-2.1-2.2-2.1-3.6c-0.3,0-0.6,0-0.9,0.1
			C690.6,257.6,690.7,257.7,690.7,258.4z M677.8,257c0.3,2.9,8.5,1.4,7.7-3C685.1,254.1,677.8,258.1,677.8,257
			C677.8,257.4,677.8,256.9,677.8,257z M640.3,262.6c0,0.4,3.2,0.9,1.7-2.1C640.6,260.7,640.1,261.4,640.3,262.6z M628.8,261.3
			c0.2,1.2,1.4,0.9,2.5,0.5C630.4,261,629.9,261.5,628.8,261.3z M647.7,256.8c-0.7,0.5-1.4,1.5-1.4,2.5
			C646.3,261.1,650.6,254.9,647.7,256.8z M644.5,253.2c2-0.9,4.6,0.9,6.6,1.8c1.7,0.8,3.3,0.3,4.5,2.4c1.6,2.7-0.2,2,0.1,3.6
			c0.1,0.4-2.2,0.3-1.2,2.2c0.4,0.9,3-1.1,3.9-0.9c2.8,0.8,3.9,3.3,7.4,2.2c2.1-0.6,2-3.7,5.6-2.5c1.4,0.5,1.7,2.2,2.9,2.9
			c2.4,1.4,1.2,0.9,4.4,1.7c4.8,1.1,3.2,1.4,0.9-1.9c-0.3-0.5-2.7-0.2-3.1-0.6c0.2,0.2-1.3-3.9-1-2.9c-0.1-0.3-3-2.5,0.8-2.1
			c-0.7-1.4-4.2-3.9-5.9-4.8c-3.3-1.9-5.8-2.5-9.5-3.6c-5.2-1.7-4.9-0.7-9,0c-2.5,0.4-5.3-0.8-8.9,0.1
			C643.4,252.3,643.9,253.6,644.5,253.2C644.7,253.2,644.4,253.3,644.5,253.2z M626.8,248.4c-1.9,0.4,1.8,0.9,2.5,0.8
			C629.2,247.9,627.8,248.2,626.8,248.4z M649.9,246.7c0.1,1,0.3,1.2,0.2,2.4c0.8,0,1.5,0,2.2,0c-0.3-1.1-0.9-0.6-0.9-2.4
			C650.9,246.7,650.4,246.7,649.9,246.7C650,246.9,650.5,246.7,649.9,246.7z M640.5,246.8c-0.5-0.1-1,0.1-1.4,0.5
			c2.3,1.4,4.8,3.3,7.9,1.9C644.4,244.5,642.9,247.8,640.5,246.8z M640,246.1C643,243,634.7,245.1,640,246.1
			C640.3,245.7,639.8,246.1,640,246.1z M637.7,248.9c0.8,0.4,1.2,2.5,1.5-0.2C638.1,248.9,638,249,637.7,248.9z M633.7,251.4
			c0,0.8,4.7,1.6,6,1.6C639.5,250.5,634.1,251.2,633.7,251.4z M631.9,251.8c-0.6-0.1-1.2-0.3-1.8-0.4
			C631.2,254,632.4,252,631.9,251.8C631.6,251.6,632.1,251.9,631.9,251.8z M634.7,239.6c-1.6,2.2-2.7,2.5-2.6,5.7
			c0.2,4.4,1.3-0.9,4-0.5c0.2-1.5-0.6-2.8-1.9-2.7C634.4,241.2,634.7,240.5,634.7,239.6C634.5,239.9,634.7,239.8,634.7,239.6z
			 M613.7,251.6c0,0,2.3,2.9,2,2.6c-0.1-0.1,0.3,2.6,0.4,2.9c1.6-1.1,1.2-4.3,1.2-6c0.5,0,0.9,0,1.4,0c0.2,0.7,2.6,6.1,3.5,5.7
			c1.7-0.8-1.4-6.7-2.4-8C630.2,248.7,613.7,242.7,613.7,251.6z M626.6,242.1c-1.7,0.6-11.6-0.7-11.2,3.5c3.2-1.5,4.1-1.2,7.6-1.9
			c1.1-0.3,1.4,1,2.7,0.4C626.5,243.8,629.1,241.1,626.6,242.1C626.5,242.1,627.1,241.9,626.6,242.1z M624.3,266.1
			c0,1.9,7.6-1.8,8.4-2.6C629.7,262,624.8,265.2,624.3,266.1z M623.4,268c-0.9,0.1-1.1,0.5-0.7,1.1c0.4,0,0.9,0,1.3,0
			C624.2,268.6,624.2,267.7,623.4,268C623.1,268.1,623.6,267.9,623.4,268z M616.4,263.4c1.9,1.9,8.1,0.3,10.3-0.6
			C624.8,262.5,617.2,262.5,616.4,263.4z M615.6,264.9c-2.8,0.9,2.3,2.2,3.2,2.2C618.4,266.6,616.5,264.7,615.6,264.9
			C615.2,265,615.7,264.8,615.6,264.9z M610,263c-1.6,0.1,4,0.5,5.2,0.5c-0.3,0.1-0.4-0.1-0.2-0.6C613,262.8,611.7,262.6,610,263
			C609.7,263,610.3,262.9,610,263z M585.7,259.2c2.5,2,6.2,2.6,10.5,3.1c3.5,0.4,7.8,2.2,11.5,1.6c-1-2.1-3.2-2.6-5.6-2.2
			c0.2-1.6,1.3-0.8,2.5-1.5C598.2,259.1,592.3,259,585.7,259.2z M578.9,255.9C578.4,257,578.7,257.5,578.9,255.9
			C578.8,256.1,578.9,255.9,578.9,255.9z M594.8,240.7c-3,2.1-1.1,5.8,0.6,8c2.4,3.3,3.4,3,8.1,3.7c4.7,0.8,3.2,2,5.8-1.9
			c0.1-0.2,0.6-3.3,1.1-4.2c0.7-1.1,3.2-1.6,4-3.3c-3-1.9-2.1-2.4-2.8-6.7c2.3,0.1,1.6-1.4,3.8-2.2c0.2,0.5-5.4-3.9-4.9-3.9
			c-1.8,0.1-3.1,3.1-4.4,4.4C602.9,237.4,597.5,242.8,594.8,240.7z M571.2,247.3c0.1,1.5,2.6,5.1,4,5.4
			C574.9,250.8,571.2,247.5,571.2,247.3C571.2,247.7,571.2,247.1,571.2,247.3z M567.6,242.4c0.6,1.1,1.6,1.4,2.1,2.5
			c0-1.4-0.4-2.3-1.8-2.9C567.5,243,567.9,242.5,567.6,242.4z M565.9,239.5c0-0.3-0.7-1.3-0.7-0.3c0,0.9,0.6,1.3,1.3,1.4
			C566.9,240.1,566.6,239.7,565.9,239.5z M566.7,234.3c-1.3,0-1.9-1.3-3.1-1.1c0.5,2.6,4.7,5.2,6,7c2.2,2.7,4,6.6,6.3,9.6
			c1.6,2,5.3,7.4,7.4,7.5c4.7,0.1,2-4.4,5.7-5.5c-0.4-2.9-3.1-4-5.4-2.3C583.3,246.1,571.1,234.8,566.7,234.3
			C566.5,234.3,567.2,234.4,566.7,234.3z M624.5,226.6c-2.4,0.3-4.5,1.9-3.2,4.6c1.9-4.7,4.8,0.7,7.9,2c-1.1-2.4,0.9-2.9,0.9-2.9
			c0.1-0.4,1-6.2-1-6.2C627.1,224.1,626.8,228.1,624.5,226.6C624.2,226.7,624.7,226.7,624.5,226.6z M617.9,216.2
			c-0.1,0.8,2.5,7.2,4.4,6.8c-0.9,2.1,2.4,3.5,1.6-0.6C623.5,220.7,619.8,216.5,617.9,216.2C617.9,216.5,618.1,216.3,617.9,216.2z
			 M621.2,215.9c2.8,1.9,4.7,5.7,7.7,6.3c0-3.4-3.2-4.2-3.2-7.3C623.8,214.9,622.9,215.9,621.2,215.9
			C621.5,216.1,621.5,215.9,621.2,215.9z M616.9,217.9c-1.7,3.2-5.9,6.4-6.8,9.1C613.8,227,616.9,221.6,616.9,217.9
			C616.9,218.1,616.9,218.3,616.9,217.9z M618.7,204.8c-3.3,1.8-2.5,8.5,1.3,9.7C619.8,212.4,624.6,204.8,618.7,204.8z M620.8,190.7
			c0-1.1-4.4,2.5-3.8,6.7c0.4,0,0.9,0,1.3,0C618.4,194.6,620.8,193.2,620.8,190.7z M677.9,140.6c-2.2,0.4-3.7,2.2-6.6,2.5
			c-3.2,0.3-4.7-0.4-8.1-2.3c-0.1,1-1.4,8.7-2.8,5.9c-0.6,1-2.6,5.9,0.7,4.3c0,0.4,0,0.8,0,1.1c-2,0.3-2.9,6.7-5.1,9.2
			c0-0.7,0.1-1.1,0-1.8c-1.3,1.3-1.7,1.7-2.2,3.3c-0.5-0.7-1.3,0.5-1-1.4c-1.4,1-2,2.5-2.2,4.6c-4.5-2-12.8,1.8-13.6,6.7
			c0.9,0.1,2,0,2.6,0c0,2.2-2.4,3.1,0.9,4.1c0-2.3,3.7-5.6,0-5.9c0.8-2.3,6.4-2.3,8.7-2.7c-2.5,1.6-6.6,0.1-5.7,4.4
			c2.1-0.9,4.1-1.8,5.5-3.1c1,2.4,3.9,0.5,3.5-1.5c8.8-1,7.2-1.4,9.3-8.8c1.2-4.1,2.5-7.3-1.3-10.5c2.6-0.5,7,2,6.8-0.9
			C669.1,147.9,677.9,143.1,677.9,140.6C677.7,140.6,677.9,140.7,677.9,140.6z M682,138.5c-0.9,0.2-1.4,0.8-2.3,1.3
			C681.2,140.5,681.5,139.7,682,138.5C681.9,138.5,681.9,138.9,682,138.5z M693,126.5c-0.3,0.9-0.8,1.8-1.4,2.6
			C693.5,128.3,693,126.9,693,126.5z M719.7,114.7c-0.2,0-0.6-1.1-1.2-0.7c-0.1,0.4-0.2,0.8-0.1,1.3
			C718.8,115.5,720.2,115.6,719.7,114.7z M716.7,115.1c-0.4-1.3-0.3-2-1.5-2.9c0,1.2,0.3,2.2,0.3,3.4
			C716.4,115.8,716.9,115.8,716.7,115.1C716.7,114.9,716.8,115.2,716.7,115.1z M710.9,102.9c0.8,0,1.4-1,1.5-1.6
			c-2-0.8-2.1,0.4-2.9,1.6C709.9,103,710.4,103,710.9,102.9z M762.6,87.4c1.9,0.3,4.5,1.1,6.4,0.9C767.3,85.1,763.9,87.5,762.6,87.4
			C762.9,87.4,762.4,87.3,762.6,87.4z M742.8,59.9c2.4,0.6,5.4-0.5,7.9-0.5c-0.7-1-2.7-2.5-4.4-2.4C745.7,57,740.9,59.5,742.8,59.9
			C742.9,60,742.6,59.9,742.8,59.9z M672.9,42.8c2.2,0.9,9.5,3.5,9.5-0.6c-3.1-0.2-7.9,0.3-9.2-1.9C673,40.6,672.2,42.5,672.9,42.8
			C673,42.9,672.7,42.7,672.9,42.8z M659.4,50c2.7,0.4,5.1-0.1,7.7,0.8C666.3,46.9,662,47.9,659.4,50z M661.7,47.2
			c1.5,0-1.3-1.3-2.1-1.2C659.6,47.3,660.5,47.2,661.7,47.2z M653.3,42.1c2.4,3.5,16.1,2.6,17-1.9c-2.2-0.4-4.9-1.7-4.9,1.8
			c-0.5-0.1-0.9-0.1-1.3,0c2.4-4.9-2.8-2.1-4.5-2.2C656,39.8,655.1,38.1,653.3,42.1z M650.9,41.2c-0.2-0.4-0.2-0.9,0-1.3
			C648.4,39.6,649.7,42.2,650.9,41.2C650.9,41.1,650.7,41.4,650.9,41.2z M649.7,46c0.8,1.8,0.7,2.9,2.9,2.6
			C652,47.9,650.5,46.6,649.7,46z M590.2,29.6c-0.6-1.2-2.5-1.5-3.8-0.9C586.7,29.1,590.7,31,590.2,29.6
			C590.1,29.4,590.2,29.8,590.2,29.6z M564.1,34.9c0.8-0.3,1.6,0,2.4,0C566.2,32,565,34.3,564.1,34.9z M573.8,30.8
			c0.4,0,11-2.3,11.3-2.6c2.6-3.4-5.2-3.1-5.8-3.4c0.5-0.6,0.8-0.6,0.9-1.2C575.6,22.9,573.3,30.8,573.8,30.8z M566.7,19.8
			c-7.8,1.1-6.7,5.5,0.5,6.2c5.4,0.5,5.8,0.6,5.5-2.6c-0.3-4.4,0-2.2-4.1-2.2c0.4-0.7,0.4-0.6,0.6-1.3
			C568.3,19.8,567.5,19.8,566.7,19.8z M560,20.2c3.1,1.7,7.5-2.7,9.3-3.8c-4.1-2-9.6-2.2-12.9,2.1C556.6,18.9,559.2,19.9,560,20.2
			C560.1,20.3,559.9,20.1,560,20.2z M559.1,21.2c-1.5,0-2.5-0.8-4.1-0.6C555.2,25.2,561.1,21.2,559.1,21.2z M554.5,13.9
			c-3.4,0-0.8,1.4-1,1.8C552.8,16.8,557.8,13.9,554.5,13.9z M467.2,66.4c-2-0.3-5.2-2.6-3.8,2C464.7,68.4,467,67.8,467.2,66.4
			C467.1,66.4,467.2,66.5,467.2,66.4z M475.8,50.2c-2-0.2-6.1,5-6.1,7.7c1.2-0.2,1.9-1,2.6,0.4c0.4-0.2,0.6-0.5,0.4-0.9
			c2.5,1.3,0.8,2.7,2.2,3.4c1.8,0.8,5.3,0.5,7.2,0.5c-0.3-2.7-3.3-3.6-3.5-6.1c-0.3-3.1,2.4-4.9,4.2-6.8c4.5-4.5,8.7-6.9,15.2-8.5
			c1.9-0.5,10-2.2,9.2-4.2c-1.3-3.1-5.9,0.4-7.6,0.9c-4.1,1.3-17.6,1.7-17.6,6.6c-0.9-0.1-1.6-0.1-2.5,0c2.1,3.6-5.3,3.4-4.6,5.8
			c0.8-0.2,1-0.4,1.8-0.3C476.6,49.7,477.7,50.3,475.8,50.2C475.5,50.2,476.2,50.2,475.8,50.2z M509.5,51.2c1.8,0,2.7-1.1,3.2-1.4
			C513.7,49.4,506.7,51.2,509.5,51.2z M493.5,15.7c2.5,3.8,4.2,0.2,7-0.3C498,13.9,496,16.6,493.5,15.7z M488,15.7
			c0,1.3-0.9,0.9-1.6,2c2,0.6,4,0.7,6.3,0.3C490.9,15.7,491.1,14,488,15.7z M487.3,19.8c-0.6,0.2-1.2,0.3-1.8,0.3
			c0.3,1.5,1.3,0.7,2.6,0.4C487.9,19.9,488,19.6,487.3,19.8C487.1,19.8,487.4,19.7,487.3,19.8z M479.4,19.1c1,0.9,1.2,2.3,2.8,0.2
			c0,2.5,3.2,0.2,3.7-0.2c0-0.3,0-0.6-0.1-0.9C483.8,17.8,480.7,18.7,479.4,19.1z M473,19.3c1.9-1.9,5.8-2.7,8.6-2
			c-0.7-4,3.7,1.4,4.2-2.3c-1,0-1.8,0.2-2.8,0c0.4-0.6,1.1-1.8,1.4-2.1c-1.5,0-2.5,1-3.4,1.2c0.5-0.2-2.7,0.7-3,0.9
			c-0.8,0.5-1.1,1.6-2.2,2.5C474.3,18.5,473.5,17.7,473,19.3z M464.1,16.3c-3.3,0-4.1,1.2-7.3,0.6c0.2,2.4,4.3,0.8,6.2,0.8
			c-3.9,2.8,2.7,3.5,4.6,1C470.7,14.5,467.8,16.3,464.1,16.3z M400,20.1c0.7,1.8,4.8-0.6,5.6,1.4c-1.1-0.1-2.2,0-3.4,0
			c2,5.7,13.2,0.6,15.8-0.9c-2.5-2.8-6-0.5-8.3-1.1c0.4-0.8,1-0.7,0.8-1.7c-2.6,1-2,0.1-3.5,2.8C406,18.1,398.8,17.5,400,20.1
			C400.1,20.3,399.9,19.9,400,20.1z M395.5,28.6c0,0.6-6,0.3-6.7,2.7c1.4-0.3,6-1.4,6.6-0.6c-0.9,0.6-5.8,1.4-5.9,1.8
			c-0.1,0.8,4.2,2.9,5.2,4.1c2.9-2.2,5.7-6.4,5.7-9.5c0.9-0.1,2.4-0.2,3.2,0c-0.4,2.7,0.3,0.8,1.5,2.4c0.8,1.1-0.9,2.1-0.9,3.3
			c3.1-1.9,3.4,0.6,4.6,0.4c1.2-0.2,3.4-1.5,4.7-1.8c-1.4-1.8-2.7,0.3-2.7-2.3c-1.3,0.2-10.2-5.1-10.5-5.9c-0.4,0.2-1.1,0.4-1.8,0
			c0.3-0.7,0.7-1.1,0.8-1.8c-3.4-1.6-3.5,0.3-5,0.7c0.8-0.2-1.2,1.9-1.4,2c0.5-0.2-0.9-2.7-1.1-2.7c0.3,0.1-3.7,1.6-3.7,1.5
			c0.4-0.7,0.6-1.4,1-2c-2,0.4-10.3,2.4-3.7,3.4c0,0.8,0.2,3-0.1,3.7c-1.2-0.6-1.1-1.7-2.6-2c0.6,1.2,3,5.1,3,1.6
			c1.4,0.1,1.5,2.2,3.5,1.6c0.8-0.3,1.2-1.7,2-1.8C391.2,27.2,395.3,26.9,395.5,28.6C395.5,28.7,395.4,28.2,395.5,28.6z M672.3,101
			c5.6,0,6.5-2.4,10.4-1.6c2.1,0.4-0.4,1.9,1.8,2.5c3.2,0.8,2.1-2.4,4.9-0.3c0.2-1.5,1.2-0.3,2.5-0.4c-0.7-2.8-1.8-0.3-0.7-3.2
			c0.5-1.3,3.4-4.2,4.4-4.8c3.6-2,6.7-1.2,6.7,2.9c4.9-0.9,6.1-7.6,10.7-6.6c-3.1,2.5-4.2,6.5-7.6,9.3c-4.3,3.6-9.8,5.6-11.4,10.3
			c-1.1,3.4-1,8.2-0.3,11.4c0.9,4.3,0.4,5,3.6,3.3c3.4-1.8,3.7-9.6,9.1-8.2c-1.4-2.7-0.3-6.4,2.8-4.5c-1-2.2-0.2-4.3-0.4-5.7
			c-0.2-0.7-1.5-0.2-2,0c0.1-1.1,1.9-5.4,2.6-6c1.9-1.7,2.1-0.7,4.4-1.3c1.3-0.3,0.8,0.9,1.6,0.8c1.2-0.1,1.5-2,2.5-2
			c1.2,0,2.3,0.4,3.6,0.2c2.8-0.3,0.5,1.7,2.7,2.1c0-5.3,12.6-8.6,16.2-9.6c3.2-0.9,3.6,2.9,2.5-2c-1-4.3-3.2-2.6-6-4.5
			c-1.6-1.2,6.6-0.9,6.6-0.9c2.4-1,3.1-2.3,2-4.7c1.7-0.1,1.9,1.6,2.5,1.7c0.3,0,3.8,0.7,4.2,0.9c2.3,1.1,1.7,1.8,4.6,2.5
			c4,1,0.9,0.7,3-0.1c1.7-0.6,0.3-2.3,1.4-3.2c0.9-0.8,6.9,1.7,4.5-2.6c-0.9-1.5-7.1-2.6-8.6-2c1.4,0.9,1.7,3.2-0.6,1.6
			c-0.8-0.6,0.3-2.8-0.7-3.7c-0.6-0.5-1.6-0.1-2.1-0.5c-0.8-0.7-3.2-2.1-4.1-2.6c-2.3-1.2-3.8-2.1-6.3-3.3c-5-2.5-15.9-4.3-19.1-1
			c5.6,2.3-8.8,4.3-1.1-0.7c-2.3-1.7-4.3,0.6-6.6,1c-2.8,0.4-7.8,0.7-10.3-0.5c-0.1,0.8-0.1,1.7,0,2.6c-3.6-3.9-3.4-8.5-10.7-8.1
			c-2.7,0.2-5.4,1-8.2,0.5c-3.6-0.8-4.3-2.6-7.5-2.9c0.7-0.8-0.5-0.5,1.1-1.3c-4.8-2.7-10.2,4.1-8.2-1.4c-2.4,0-4.7-1.3-7.2-1.4
			c-4.7-0.1-3.6,0.7-8,1.4c0,1.9,2.2,1.8,2.2,3.9c-1.8-0.4-3.5-0.7-5.3-0.8c0.4,0.6,1.5,1.4,1.1,2.4c-2.1-0.4-2.5-2.1-4.6-2.4
			c0.1,0-5.3-0.1-5.6,0c-2.9,0.8-2.4,3.6-4.7,3.6c0.1,0-4.2-3.7-4.5-4.5c-0.4-1,1.2-4.1,0-5.6c-1.9-2.3-3.5,0.2-5.5-0.3
			c-4.4-1.2-5.8-4.2-5.8,1.9c-3.5,0-5.4,0.4-8.5-0.9c-1.1-0.5-1.8-2-3.2-2.3c-2.7-0.7-7.5,0.6-10.5,0.6c0-0.6,0-1.1,0-1.7
			c-1,0.3-2.7,1.4-3.7,0.4c0.3,0,5-2.3,2.8-2.9c-2.5-0.7-3.9,3.2-7.1,2.7c0.5,2.9-4.4,2.7-7.1,2.7c2.8-0.3,15.3-7.9,15.6-9.4
			c1.2-6.7-11.5-6.2-14.4-5c0.6-0.7,1-0.8,1-1.9c-1.7,0.2-3.3-0.3-4.9-0.3c0.3-0.5,1.6-2.2,1.9-2.4c-6.5-0.5-6.7,1.7-10.8,3.8
			c0.5,0.7,0.4,0.5,0.6,1.2c-4.4-1-4.8,2-8.5,2.4c-1.4,0.1-3.8-1.5-5.8-1.3c-0.4,0-4.5,2.6-6.4,3c-1.9,0.4-3.4,0.6-5.7,1.4
			c-0.7,0.3-4.7,1.7-5.1,2.3c-1.9,2.8,3.4,0.9,0.2,3.3c-3.6,2.6-10.3-0.8-13.9,2.5c1,2.3,7.5,6.1,3.8,6.4c-1,0.1-2.4-1.9-3-2.1
			c-2.8-1-4.7-1.1-7.5-0.5c1,0.5,2.4,0.4,2.4,1.9c-8.3-0.5,1.4,1.4,1,4c-1.4-2.1-4.9-0.7-6.6-2.8c-0.6-0.7,0.1-4.3-0.6-5.6
			c-0.3,0.2-0.6,0.3-0.9,0.2c0,4.1-2.5,2.5-2.9,4.9c0,0,0.7,6.9,0.8,7.1c2.4,3.9,1.7,0.4,4.7,1.5c3.6,1.4,3.4,3.3,3.4,5.7
			c0,0.8,2.8,1.3,3.3,1.4c-4.7,3.1-3.7-8.5-10-3.4c0,0,0.2,3.1-0.3,3.8c-0.9,1.4-1.8,2-3.1,2.6c-3.4,1.9-3.3,1.1-7.7,0.8
			c0.9-1.4,4.5-1.1,6.3-2.7c1.6-1.4,2.8-3.1,2.8-5.4c-2.6,0.2-3.5-10-3.2-12.9c0.5,0,1,0,1.4,0c0.8-3.7-5.4-4.7-8.1-2.7
			c-0.3,0.3-4.6,7.1-4.7,7.4c0.7-2,0.8,4.9,0.1,3.6c0.6,1.2,1.7,0.9,2.5,2.5c0.5,1.1,2.9,1,2.5,2.7c-0.8,2.9-3.7-1.1-3.8-1.1
			c-3.3-0.9-5.8-2.1-8.9-3.1c-1.6-0.6-7.6-3.6-8.5-3.5c-4.1,0.6,7.8,5.4-0.2,8.5c0-6.2-13,4.5-10.6-2.6c-3.4,2-7.3,2.1-10.8,4.4
			c-0.6,0.4-8.1,7.2-7.5,0.3c5.7,0.2-0.9-3.6-4.2-3.6c1.4,1.4,2.4,8.5,1,9.4c0.3-0.2-3.3-1-4.4-0.8c-0.8,0.2-3.1,2.7-4.7,2.8
			c0.4,0.6,1.7,2.5,1.6,3.5c-2.3-1.2-5-0.1-6.9-2.5c-4.6,2.5,2.3,2.8,2.3,4.2c0,1.1-3.5,0.6-3.8,0.4c-3.5-1.6-1.7-1.2-3.3-3.8
			c-1.3-2.2-4.1-5-6.1-7.7c1.9,0.3,21.5,8.1,19.1-1c-0.6-2.2-5.9-4.2-7.9-5c-3.2-1.2-8-0.3-9.4-1.2c1.6-3.4-5-2.3-6.5-3.7
			c2.5,0,1.2-1.2-0.1-1.8c-3.2-1.7-1.9,0.4-4.2,0.4c0.3-0.5,0.6-1.7,0.7-2.2c-0.7-0.2-2.4-0.2-3.1,0c0.1,1.1-0.2,1.7,0,2.8
			c-0.6-1.4-1.1-1.1-2.2-2.1c-0.4,2.5-1.5,3.5-1.5,0.3c0.4-0.2,1.2,0,1.6,0c0-0.5,0-1,0-1.4c-0.9,0.1-7,3.4-4.8,1
			c-4.7-0.5-4.3,2.1-1.8,3.5c-1.4-0.5-3.1-0.1-4.6-0.6c0,1.3,0.2,1.6-0.7,2.4c0-1.6-2.3-3.1-3.9-2.9c0.6,2.2-1.5,5.7-1.9,2.5
			c-2.7,2.7-0.2,0.8-1.1,3.7c-2.3-0.9-1.8-0.3-2.5-2.6c-0.9,0.3-1.5,1.3-2.9,2c0.4,0.7,0.3,0.4,0.3,1.1c-2.1,0-3.4,1-4.5,2.5
			c2.3-0.7,5.8-2.9,8.2-1.7c-3.3,0.8-8.2,6.4-8.8,10.4c-1.1,0.1-2.8,1.2-3.7,2.1c0.6,0,1.2,0,1.8,0c-0.3,2.2-5.4,4.4-6.9,4.1
			c0,0.9-0.2,0.5,0.2,1.7c-6.1,1.3-6.8,4.8-8.1,9.2c5-0.2-1.8,3,2.8,3.4c-0.1,1.3-0.7,1.4-0.6,2.6c4.9,0,6.8,0.6,10.1-3.6
			c2.2,0.4,3.8,8.1,5.7,10.3c0.5,0.6-1.2,1.7,0.2,2.2c3.2,1.3,1.8-1.1,3.2-1.6c2.4-0.8,3.7-1.7,5.8-2.2c0.2-0.4,0.2-0.8,0-1.1
			c-1.2,0.1-1.5,0.1-2.2-0.4c0.7-1.1,3.6-4.7,3.8-5.3c0.7-1.9,3.5-3.5-0.7-3.5c0-3-2.5-5.7,0.5-9.3c1.5-1.8,4.4-1.9,5.8-3.8
			c0.9-1.2,1-4.8,3.2-6.2c1.7-1.1,5.6,0.7,5.9,2.8c0.7,4.3-13.4,6.8-6.9,14.3c4.5,5.3,12.5-1.1,17.8,1.9c-3,3-7.2,1.7-10.7,2.1
			c-1.3,0.2-6.2,1.8-6.3,1.9c0.5,0.2,0.9,0.4,1.4,0.6c-1.1,0-1.8,0.4-2.8,0.7c1.2,3.2,3.6-0.5,4.4-0.1c1.5,0.8,1.7,1.6,3,2.5
			c-3.8,4.9-3.6-0.8-5.8,0c-2.7,1-2.5,6.8-2.6,8.3c-2.3,0-5.3-1.3-3.3,1.9c-3.5-3.5-5.4,0.3-9.2,0.6c-1.3,0.1-6.8-3.1-7.2,0.4
			c-1.4-0.1-2.9-0.6-3.7-1.2c0.4-3.9,5.9,1.6,5.4-5.3c-0.8,0.4-3.5,1.3-4,1.1c0-0.6,0.4-1.8,0.7-2.4c-0.4,0.2-0.9,0.2-1.3,0
			c0.5-3.6-0.4-4.3-3.3-1.4c-2,2-0.5,4.2-0.6,6.1c-0.2,5,1.3,2.3-2.6,4.5c-2,1.2-5.4,2.3-7.7,2.3c2.9,3.7-2.7,3.3-4.8,4.9
			c-0.2,0.2-1.9,4.2-2.6,4.3c-2.1,0.7-3.4-1.3-4.8-1.1c3.3,5.6-3.2,1.7-5.2,3.2c-2.4,1.8,0.6,1.2,1.4,2.3c1.1,1.5,2.4,2.2,3.5,4.5
			c6.4,12.7-9.1,4.8-15.3,7.5c1.2,4.1-0.6,8.8,0.4,12.7c0.9,3.5-0.3,1.4,2.8,3.3c2,1.3,3,0.1,4.8,2.4c0.4-0.5,0.3-0.7-0.2-0.7
			c3.2-1.1,7.2-2.5,9.8-4.8c1-1,1.5,0.3,2.3-0.8c0.5-0.7-0.9-1.8-0.9-1.8c0.4-0.5,0.7-2.8,1.4-3.7c1-1.3,5.6-2.6,6.4-3.2
			c0.9-0.8-0.7-2.4,1-3.5c1.4-0.9,4,1.1,5.6,0.8c0.6-0.1,3.6-3.7,5.2-3.4c2.2,0.4,4.3,4.5,6.1,5.9c5.4,4.2,15,10,1.5,10
			c3.6,6.3,9.3-0.3,10.9-4c-0.7,0-1.3,0-1.9,0c0-0.4,0-0.8,0.1-1.2c0.9,0.3,3.3,0.8,4.1,0.8c-1.4-2.7-5.3-5.8-8.6-6.3
			c0.3-2.1-3.1-4.8-4.7-4.6c0.5-7,5-0.8,8.5,1.7c2.4,1.7,5.4,2.9,6.8,5.3c0.8,1.5,2,5.5,2.8,7.2c-0.9-0.3-1.2-0.5-2-0.3
			c0.7,1.9,1.7,2.8,3,1.3c1.4,6.9,5.9-0.5,8.5-0.9c-0.4-0.7-0.9-1.3-1.8-1.3c0.2,0.4,0.2,0.9,0,1.3c-1.3,0-4.1-4.1-3.7-5
			c1.3,0.8,2.1,1.2,3.6,0.5c-0.1-0.4-0.4-0.5-0.8-0.5c5.1-7.5,7.9,11.9,8.7,11.9c0.9,0,0.7-2.5,0.7-2.9c2,1.7,3.5,1.4,5.1,1.6
			c-1.6-0.2,2.6-1.1,2.5-1.1c1.6-0.1,2.3,1.9,4.9,1.3c0-0.7-0.1-1.3,0-2c4.9,1,5.3,2.7,3.5,7.9c-0.6,1.8-2.9,4.8-4.5,5.5
			c-1.9,0.8-3.7-1.1-5.5-0.2c2.8,1.3,4.8,9.7,7.9,6.5c4.8,5,5.9,11.8,9,17c2,3.3,6,5.9,7.7,9.6c2.3,5.1-0.8,8.2,5.7,8.3
			c2.9,0,6.3-2.8,9.2-4c3.3-1.3,4.9-2.7,7.5-3.9c3.4-1.5,5.4-0.9,7.7-3.6c1.1-1.2,3.4-4.3,4.8-3.7c0-3.1,0.1-3.3,2.4-4.2
			c-0.3-1.5-2.8-3.2-3.9-4.2c-2-1.7,0-3.5-2.9-0.7c-0.3-1.4-0.7-4.3-1.8-5.1c-1.2,1.5-1.6,1.6-1.8,4c-4.5-0.4-11.5-0.2-3.2-1.7
			c-0.1-0.5-6.4-2.3-6.7-2.5c-1-0.7-4-4-4.2-5.5c-0.9-5.2,1.6-3.5,4.7-1.3c3.8,2.6,5.1,3.8,9.5,5.2c0.8,0.3,2.5-0.3,3.6,0
			c0.8,0.2,1,2,2,2.5c2,0.9,6.9,1.4,9.3,1.5c5.4,0.2,6.9-0.3,11.2,2.2c2.3,1.3,2.5,3,6,3.7c-6.2,0,0.9,3.2,2.3,3.7
			c2.3,0.8,1.1-3.1,3.6,0.3c1.2,1.6,0.3,3.8,0.6,5.6c0.6,3.6,1.9,6.5,3.2,9.8c0.9,2.3,2.5,9.7,4.7,11c2.3,1.3,4.7-1,5.9-3.7
			c0.9-1.8,0.9-3.9,1.1-5.9c0.1-1.1-0.3-3,0.1-3.9c1.2-3,0.9-0.1,3.1-2.2c4.2-4,9.1-10.1,13-12.3c1.5-0.9,8.1-2.2,8.1-2.1
			c1.3,0.8,4.2,7.3,4.2,8.8c3.8,0-0.6,3.2,2.2,5.4c1.9,1.5,4-1.7,4.4-1.6c3,0.8,5.1,8.7,5,11.9c0,1.7-2.7,3.6-1.5,6.5
			c0.7,1.8,3.4,3.4,4.4,5.6c1.2,2.7,3.6,12.4,8.8,9.9c-1.8-3.1-1.8-8.5-3.6-10.7c-2.6-3.1-5.7-3-6.4-7.5c-0.2-1-1.2-5.6,0.5-7
			c2.7-2.2,0.5-0.5,3.1,0.9c2.3,1.3,2.1,1.2,4.2,3.8c0.5,0.6,2.2,1.1,2.4,1.4c0.8,1.3-0.2,2.4,0.9,4.3c2.2-3.1,5.6-4,7.4-6.4
			c3.3-4.5,1.2-8.2-1.4-11.7c-4.1-5.3-5.1-11.7,4.2-11.7c0.6,2.7-3.5,5.7-1.9,7c3.8,3.4,4.7-6.5,4.6-6.5c1.7-1.5,5.3-1.6,7.2-2.2
			c2.8-0.9,3.7-1.5,6-3.2c3.2-2.4,9.2-7.7,10-12.1c0.6-3.2-1.1-1.2-1.4-3.4c-0.2-1.2,1-0.9,0.6-3.1c-0.5-2.6-4.1-5.8-4-7.6
			c0.1-3.6,3.7-2.4,5-4.2c1.1-1.7,1.1-1.6-2.2-2.8c-1.5-0.5-1.1,1.7-3,1.7c0.5-4.2-4.9-1.3-2.5-5.2c-0.2,0.3,4.3-1.7,4.6-1.8
			c4.9-1.9,3.5-2.5,1.4,2.7c1.4-0.8,5.3-2.9,7-2.1c3.4,1.5,0.7,2.1,1,4.9c5.3-2.2,3.7,6.2,3.1,8.7c3.8,0.4,8.1-2.1,8-5.8
			c-0.1-3.3-4.2-3.7-3.4-8.2c0.2-0.9,1.9-0.2,2-0.7c0.1-0.1,0.6-3.6,0.9-4.1c0.8-1,2-3.1,3.4-3.8c0.8-0.3,3.8,0.3,5.3-0.1
			c2-0.6,2.5-1.1,4.1-2.5c2.5-2.2,5.8-6.2,7.5-8.8c2-3,1.4-5.4,2.8-8.5c4.3-10.2,2.4,9.9,2.4,12.7c0.8-0.8,1.4-0.4,2.2-2
			c1,0.9,0.1,1.7,2.3,1.8c-0.6-4.1-5-7.7,1.1-7.7c0.2,0-2.9-13.9-3-15.5c-0.3,0-0.6,0-0.9,0c0.2,3.3-0.9,3.1-0.9,6.2
			c-2.5-1.5-2-4.8-6.7-6.2c-0.5,3.4-2.2,2.3-3.6,0c0.1,0.7,0.1,1.1,0,1.8c-2-0.3,0-1.5-1.4-2.8c-3.1,3.1-0.1-1.6,1.1-2.9
			c1.8-2,3.6-3.3,5.5-5.7C662.6,101.3,666.2,101,672.3,101z M346.2,103.1c-1,0.4-2.1,1.6-2.4,2.6
			C344.8,105.4,347.9,102.8,346.2,103.1C345.8,103.2,346.3,103.1,346.2,103.1z M348.5,128.2c2.3,0,4-1.6,5.3-1.8
			c2-0.3,4.8,0.6,6.4-0.1c2.8-1.3,3.7-4.1,3-6.6c-0.5-1.6-1.7,1-1.8,0.9c-0.8-0.8-0.6-2.1-1.2-2.6c-1-0.9-2.4-3-3.7-4.5
			c-2-2.4-2.3-1.8-2.6-3.7c-0.2-1.3,5-6.2-2.7-3.9c0.6-1.1,0.7-2,1.9-2.7c-2.5-2.5-3.6,1.4-4.6,2.1c-0.2,0.1-5.3,1.9-1.3,2.5
			c-0.3,1.2-1.6,2.9-1.6,3.6c1.3,0.2,3,1.2,3.3-0.2c-0.3,4.4,2,2,3.6,5.5c1.9,4.1-2,1.3-3.9,3.7c0.8,0.2,1.4,0.1,2.2,0.2
			c0,1.2-3,1.7-2,2.9c0.6,0.7,3.8-0.3,4.8,0.7C353.4,124.6,347.1,128.2,348.5,128.2z M346.6,116.7c5-0.7-7.9-7.1-4.9-1.1
			c-2.4,0.4-5.5,3.7-1.7,3.6c-5,7.3,2,2.5,6.3,3.4C346.5,120.7,346.6,118.8,346.6,116.7z M466.3,287c0-4.3,3.1-13.2-2-15.2
			c0,1.5-2,5-2.9,5.9c-1.9,1.7-4.8,1-6.7,2.9c-1.5,1.4,0.2,5.9,0,7.1c-0.3,2.3-1.3,2.5-1.8,5.4c-0.6,3.7,0.3,9.1,5.2,8.1
			c4.7-1,3.2-2.5,4-6.7c0.1-0.5,1.3-5.3,1.4-5.4C463.8,288.5,466.3,287.8,466.3,287z M429.2,180.3c-2.1-5.1-3.4-3.1-8.1-3.7
			c-6.8-0.8-12-3-18.3-4.4c0,6.1,0.1,5-4,5.1c0.8-0.1-3.7-1.3-3.2-1.1c-1.1,0-2.2,0-3.3,0c-0.3-0.6-0.6-1.2-0.7-1.8
			c-2-0.7-8-1.6-9.2-3.3c-2.3-3.1,2.6-3.7-1.6-6.3c1.1-0.9,1-1,2.5-1.4c-2.1-3.6-7.9-0.3-11-0.2c-3.3,0.1-6.8-1.4-10.9,0.4
			c-2.8,1.2-4.8,2.9-8.5,2.8c-4.5-0.1-7-3.2-7,2.7c-1.1,0-2.2,0-3.4,0c1.5,5.4-2.5,1.9-3.3,3.7c-1.4,2.9-0.9,6.3-2.2,8.1
			c-0.8,1.1-3.7,2.5-4.9,4c-1.3,1.5-2.8,4.2-4.2,6.2c-1.4,2.1-7,7.4-6.3,10.5c0.2,0.9,3.4-0.4,3.9,0.7c0.4,0.8-0.6,1.3-0.4,1.8
			c0.9,2.3-0.6,6.2-0.8,8.5c-0.2,2.9-0.5,5.3,2.7,8.6c3.4,3.6,6.5,6.5,10.3,9.8c1.3,1.1,1.9,3.7,4.7,4.3c3.1,0.6,3.5-0.8,6.5-1.1
			c2.6-0.3,4.5,0.8,6.3,0.8c3.7-0.1,3.5-1.5,6.5-2.6c2.5-0.8,7.7-0.6,9.2,0c2.2,1,1.7,2.6,5,3.4c5.7,1.3,5.4-1.6,5.5,4.5
			c0.1,2.8-1.1,6.5-2.7,8.1c7.2,2.3,11.9,16.9,10.7,23.9c-1.1,7-5.4,7.3-1.8,14.8c2.2,4.7,3,7.4,4.2,12.5c1.3,5.3,5.4,8.9,6.9,13.7
			c1.3,4.1-0.7,5.4,1.4,7.6c5.4,5.9,19.7-1.1,23.9-5.6c1.6-1.8,4.4-4.8,5.4-6.9c0.9-2.1-0.3-5,0.2-6.3c0.5-1,4-1.6,5.2-3.1
			c3.1-4-1.5-5.7-0.7-9.8c0.7-3.4,6.9-5.1,8.7-6.7c4.4-4,4.7-8.4,3.6-14.4c-0.6-3.4-3.7-8.4-2.5-12.5c1.7-5.5,8.7-10.8,13-14.5
			c3.1-2.7,6.2-5.9,8.3-9.6c1.4-2.5,2.3-2.7,2.7-6c0.6-5.3,1.4-4-3.1-4c-6.3,0-8.1,2.4-12.5-2.4c-2.5-2.8-6.6-5.4-9-8.5
			c-2.4-3.1-4.8-10-6.3-13.7C434.4,190.9,433.1,185.2,429.2,180.3C429,179.9,429.4,180.6,429.2,180.3z M201.6,351.6
			c-0.9-0.2-0.8-1.6-1.4-1.6c0.3,0-2,2.6-2,2.6c0,0.4,4.2,3.6,4.5,3.8c-0.2,0.3-0.3,0.6-0.2,0.9c-7.2,0-1.4,6.3-2.6,8.9
			c0.7-0.1,1.1-0.1,1.8,0c0,0.6-0.3,1-1,1c1.2,1.2,0.6,0.5,1.7,0.8c-0.4-0.1,4.7,6.4,5.6,6.9c4.3,2.6,8.3,1.4,12.4,1
			c-0.2-1.3-5.3-2.8-6.4-5.3c-1-2.5-3.3-8.8,0.8-8.4c0-2.6,5.2-5.5,4.8-7.3c-0.4-2.2-5.6-0.9-3.8-5.3c0.6-1.4,3.4-0.6,4-1.4
			c0.5-0.7-0.2-1.8,0.6-2.6c-0.5,0.6,2.6-4.9,2.2-2.9c0.7-3.6-2.7,0.1-1.9-5.2c5.3,2.1,6.3,0.2,5.5-4.7c4.3,0.1,9.6,0.3,11.5-3.9
			c2.1-4.5-2-3.5-2.7-7.4c4.8,0.6,6.7,2.3,10.4-1c1.8-1.6,3.1-7.9,5.1-7.6c-0.3,0.9-0.4,1-0.2,1.8c5.8-2.9,4.2-11,7.3-14.8
			c2-2.5,4.9-3.7,7.8-4.5c4.6-1.3,5.9-1,8.4-5.5c3.1-5.3,1.8-13.4,4.2-17.7c1.8-3.1,5.7-5,6.8-8.6c0.7-2.4,0.6-2.2,0-4.4
			c-1.3-4.8-1.3-1.6-4.2-4c-3.2-2.5-4.6-3.1-8.6-3.8c-2.2-0.4-9.8,0.1-6.6-1.6c-1.2-0.8-3.1-2-4.7-2.3c-3.9-0.8-3.1,0.1-5.8,1.3
			c0.3-0.4,1.4-3,1.4-3.2c-1-0.1-2.5-0.6-3.5-0.9c-1-0.3-0.4,2.3-2.5,2c0.4-0.9,4.5-6.1,0.7-6.1c0.7-6.8-5.6-7.1-9.8-8.2
			c-3.4-0.8-10.9-4.3-10.9-8.1c-1.9,0.7-5.3-0.2-2.4-1.6c-2-2.5-6.1,1-7.3,1c-4.3-0.2-6.3-3.7-10.4-4.5c0,2.2-1.5,1.7-2.8,3
			c-0.2,0.2,0.4,3.2,0.2,3.7c-2.3-1.9-1.7-5.9,0.7-7.4c-3.8-1.1-14.3,5.9-15,10.7c-0.3,2.6,2.4,5.4,0.6,9.1c-1,2-5.1,6.2-7.3,6.9
			c0.4,3.4-1,4,2.5,4.3c-1.4,2.5-4.8,4-2.9,8.1c0.5,1,2.7,1.3,3.6,2.5c0.9,1.3,1.8,3.2,2.4,4.6c1.2,3,2.4,8.1,4.3,10.3
			c2.7,3.1,5.9,4,9.2,6.6c5.6,4.4,3.6,13.9,2.6,20.8c-0.5,3.8-1.9,7.4-2.4,10.9c-0.5,4.2,0,8.5-1.7,12.4c-1.9,4.3-1.7,6.9-2.9,11.8
			c0.1-0.3,0,3.2,0,2.3c0,0.8-1.5,1.5-1.2,2.5c1.6,4.7,2.9-2.3,4.5-2.5c-1.2,3.3-1.6,6-2,9.8c-0.9-1.5-1.1-0.7-1.4-2.7
			C200.2,347.7,201.7,350.7,201.6,351.6z M207.2,207.1c3.9-0.9,9.5-0.2,13.4-1.6c-1.7-2.1-7-1.4-10.3-1.9c-2.1-0.3-6.4-2.7-6.7,0.6
			C203.4,206.3,205.3,207.5,207.2,207.1C207.7,207,206.9,207.2,207.2,207.1z M196.7,206.5c-0.9-1.4-2.8-1.9-4.7-1.6
			C193.2,206.5,195.4,207.8,196.7,206.5C196.5,206.2,196.4,206.8,196.7,206.5z M200.7,201.4c-1.7-2.7-8.7-4.4-11.6-5.5
			c-1.9-0.7-6.3-2.5-8.7-1.1c-2.6,1.5-2,1.8,0.8,3.1c1.2,0.6,2-1.3,3.1-1.1c1.6,0.3,2.7,1.7,3.6,2
			C192.6,200.5,195.5,201.4,200.7,201.4z M308.8,80.1c2-0.3,2.8-0.3,3.3,1.8c-1.5-0.3-2.9-0.3-4.5,0c0.1,0.4,0.2,0.9,0.2,1.4
			c4.6-0.8,1,1.8,3.4,2.7c0.5,0.2,5.8,0.7,6,0.7c4-0.2,4.4-1,7.8-2.9c2.9-1.6,4.2,0.6,5.1-2.5c0.4-1.2-1.8-1.3-2.2-1.3
			c1-5.6-6.6-0.6-10.4-1.1c-0.6,0-3.9-0.5-3.3-0.5c-1.6-0.1,0.1-2.5-1.6-0.5C308.7,76.5,307.7,80.3,308.8,80.1
			C309.1,80,308.5,80.1,308.8,80.1z M239.9,124.8c-0.9,0.6-6.1,8.9-5.7,9.6c0.8,1.3,3.6,0.1,5.1,0.5c2.3,0.7,2.8,1.6,5.1,2.7
			c3.5-5.3,0.2-7.1-4.9-8.7C239.4,128.9,242.6,123.3,239.9,124.8C239.6,125,240.2,124.7,239.9,124.8z M227.8,129.7
			c-2.2-0.7-3.2-1.7-5.4-1.4C224.5,129.6,225.8,132.6,227.8,129.7C227.5,129.6,227.7,129.9,227.8,129.7z M291,69.6
			c0.6-0.2,1.3,0.7,1.8,0.8c4,1.3,4-0.2,7.2-1.5c2.9-1.1,10.1-2.7,11.1-5.4c-3.9,3.1-13.1-4.1-3.3-3.7c-0.4,0,4.4,5,5.5,0.7
			c0.4-1.6-3.6-5.5-4.8-6.2c0.7-0.6,5.1,2.6,3.8-1.6c-0.6-2-1.8-2-4.3-1.1c0.5-0.8,1-0.7,1.3-1.4c-0.5-0.1-0.9-0.3-1.3-0.6
			c1.4,0,5.5,2,7.4,0.7c4.3-2.9-2.7-1.9-2.7-3.3c0-0.3,6.6-0.7,7-1.4c-1.4-1.4-5-3.7-0.7-4.1c0.1-3.6-5.3-3.6-4.7-5.6
			c0.3-0.8,2.9-1.1,3.6-0.9c2.9,1.1,0.5,1.3,1.8,3.9c0.8-4.6,2.6-5.8-3-5.8c1.5-1.7,0.1-0.5,2.7-1.7c-1.6-2.4-5.4-0.1-5.5-0.1
			c-4-3.2,10.1-12,11.4-13.6c-1.8,0.1-3.5-0.2-5.3-0.3c3.7-0.8,5.7-0.6,8.9-2.7c0.9-0.6,5.4,0,3.3-3c-0.3-0.5-5-0.3-5.5-0.2
			c-3.2,0.4-6.3,1-9,1.7c-1.7,0.5-8.7,4.2-9.7,4c4-5,6.2-5.8-1.1-6.9c0,2.9-2.1,2.6-4.9,3.1c0.5-2.4,2.1-1.4,3.8-2.2
			c-4.2-3.1-11.8,1.7-16.3,1c1.2-3.7,19.9-4,24.2-4.5c0-0.3,0-0.7,0-1c-4.3,0-6.2-0.7-9.5-1.2c-5-0.8-9.8,0.3-14.7-0.2
			c3.6-2.4,10.8-1.4,15.9-1.4c-0.6-4-22.9-2.3-25.8-1.4c-3.1,1-0.3,2-4.2,2.5c-2.3,0.3-4.2-1.1-6.5-1.2c-2.1-0.1-6.4,0.3-8.8,1.2
			c0.7,1.4,2.4,0.8,2.4,2.8c-0.9-0.7-4.9-2.4-3.7,0.1c-0.3-0.6,7.1,3.8,5,3.8c-4.7,0-8.3-3.8-13.3-3.8c0,1.1,3.1,2.9,3.5,4.5
			c-3-0.8-5-3.6-8.2-3.9c0.8,1.6,1.1,5.6-1.6,4c0,0,1.3-3.2-0.5-4.2c-2.1-1.2-8.8,2.9-10.2,2.2c1.5,0.6,4.2,1.4,5.3,2.7
			c-2.1,0-3.9-1.5-6.2-1.7c-1.4-0.2-1.1-1.4-3-0.4c-1.9,0.9-0.4,2.3-0.9,2.5c-1.8,1-5.4,1.4-8.7,3.2c-1.3,0.7-4.5,0.6-4.3,2.9
			c1.9,0.5,2.9,0,4.7,0c1.3,0-0.1,4.2-0.3,4.4c-0.6,0.5-3.4,0.4-4.3,0.6c-2.3,0.6-6.4,0.3-8.7,1.7c-7.6,4.5,6.4,4.8,10.5,4.8
			c-0.8,3.4-9.3,0.9-9.3,2.8c0,1,3.7,2,4.5,2.2c-0.6,0-0.7,0-0.9,0.5c1.1,0.9,3.3,2.8,5,2.2c-0.1-0.2-0.8-0.9-0.5-1.1
			c2.5-1.6,13.3-0.4,16.3,1.6c4.3,2.8,7.6,8.4,8,13.6c0.3,0,0.7,0,1.1,0c-4.3,7.7,6,1.4,8.9,8.3c-2.8,0.1-5.4-1.9-7.9-0.8
			c0.6,1.9-1.7,5,2.2,5.1c3.4,0.1,4.5-2.3,0.5-3c5.6-0.7,4.3,1.5,5.9,5.5c-2.5-0.1-4.5,0.3-4.4,2.8c-5.6-0.7,0.3,6.6,0.6,7.8
			c-0.1-0.3,1.7-0.8,2-0.1c0.3,0.6-1.8,1.3-1.3,1.8c-0.9-0.8,1,3.1,0.8,2.6c0-0.1,2.2-1.3,2.6-1.3c-1.7,3.5,0,9.5,3.8,12.3
			c1.7,1.3,10.1,4.5,11.4,3.8c1.9-1,1.4-4.8,2.1-6.6c0.5-1-1.1-1.4-0.5-2.6c0.3-0.7,2-0.2,2.5-1.2c2.3-4.2,0.9-8.1,6.5-8.6
			c-0.2-2.7,0.1-0.8,1.6-1.7C278.9,84.4,290.9,69.6,291,69.6z M168.8,35c2.4,3.7,13.2,2.3,17.1,1.7c1.1,2.7,7.4,1,7.2-2.5
			c-0.6,0.3-1.2,0.5-1.8,0.8c-0.2-0.6-0.4-1.1-0.6-1.7c2.5-0.5,2.4-1.1,1.8-3.4c3.2,0.9,5.9,0.4,3.7-2.5c-0.3-0.5,3.4-0.1,3.4-0.6
			c0-3.1-5.7-2.1-7.1-0.8c-0.2-0.4-0.3-0.7-0.4-1.1c3.6-2.6,7.6,1,11-2.1c-0.7-0.5-1.3-1-2-1.4c2.3,0.6,4.5,1.1,7,0.1
			c-1.1-0.8-0.9-1.5-2.4-2.1c5.3,1.3,11.5-4.5,16.4-5.8c-1.6-1.6-5.8,0-8.5-0.4c2.2-2.8,14.4-0.1,15.2-4c0.5-2.7-10.6-3.1-13.3-2.5
			c-1-1-5.3-2.2-8-2.5c-1,3.7-13.1-1.7-12.2,2.6c-3.4-1.3-10.8-2-13.3,1.7c2.8-0.2,5.9,0.4,7.3,2.7c-2.8-0.7-6.6-2.5-9.1-3
			c-2.6-0.5-4.7,0.9-5.4,1c-2.7,0.4-8.1,1.8-11.4,2.5c0,0.3-0.1,0.7-0.1,1c2.8,0.9,3,2.5,6,3.4c4.4,1.4,4.6-1,8.4-1.5
			c-7.6,4.5,4.2,2.9,6.3,2.4c4.3-1.1,7.2-3.5,11.7-3.4c-1.8,0.2-3.5,1-4.9,2.2c1.6-0.3,3,0.3,4.6,0.2c-2.3,1.7-9.5,2.2-12.7,2.4
			c0,0.4,0,0.8,0,1.1c2.2,0.9,3.5,2.5,6,2.5c-3.8,1-9.5-2.7-13.8-3.2c0.3,3.6,6.9,6.6,10.5,6.4c-0.8,1-1.2,1.7-1.9,2.5
			c-6.4-6.3-16,3.5-4.1,1.4c-0.6,0.3-1.3,0.7-1.9,1c1.4,2.3,3.9,1.5,5.8-0.4c-2.2,5.8-8.6,0.3-12.5,0.8
			C172.6,32.9,171.1,34,168.8,35z M169.9,27.7c0.6-0.8,1.8-0.3,1.4-2.3c7.1,1.1,5.5-3.3,1-6.1c0.3,0.2-14.4-7.2-14.1-5.1
			c1,0.2,2-0.5,2.2,0.8c0,0.2-3.9,0.7-4.4,0.7c0.9,0.6,1.2,1.5,1.6,1.9c-1.1-0.2-2,0.2-3,0.1c-0.3,0.8-0.8,2.5-0.8,3.5
			c2.7,2.7,6.6,0.4,9.5,2.8c-1.7,0.1-3.5,1-5.1,1.2C161.5,28.1,165.9,29.2,169.9,27.7z M164,31.5c-0.3,0.5-0.7,1-1,1.6
			c2,0.6,3.3,0.5,5-0.3C167,30.8,166,31.1,164,31.5z M165.8,45c2.2-0.5,26.9,1.6,23.3-4.1c-2.2-3.4-11.9,0.3-14.9,0.2
			c-6.3-0.1-7.1-6.6-12.7-5C163.6,39.7,161.4,43.5,165.8,45z M150.3,45.5c0.5,0,1,0,1.6,0C151.2,43.8,151.2,45.2,150.3,45.5z
			 M153.7,42.7c1.2,1,7.2,3.8,6.6-0.1C159.8,39.4,154.8,40.9,153.7,42.7z M159.2,37.9c2.5-2.6-1.2-4.4-3.8-4
			C150,34.7,156.7,37.9,159.2,37.9z M154.7,32.5c2,0,4-0.3,5.9-0.8c0-0.4,0-0.8,0-1.1C158.1,30.3,155.4,30.1,154.7,32.5z
			 M155.1,29.7c5.6-1.4-3.7-3.9-5.5-3.4C150.4,29,152.2,30.6,155.1,29.7z M148.8,21.3c-0.8-1.6-1.4-2.4-3.5-2c0,0.5,0,0.9,0,1.3
			C146.9,21.3,147.4,21.6,148.8,21.3z M147.4,30.9c1.6-5.6-9.4-8.3-13.6-6.7c1.6,0.7,2.4,1.9,3.6,2.9c-0.6,0-1.3,0-1.9,0
			C137.2,29.4,144.2,29.7,147.4,30.9z M143.1,31.2c-1.4-0.6-1.9-1.4-3.6-0.9C140.2,32.2,141.3,31.6,143.1,31.2z M142.1,40.9
			c2.3-1.1,3.7-0.3,4.2,2.3c3-0.1,5.2-1.2,4.9-4.4c-0.4-3.5-3.9-2-7.1-3.3c1.1,0.8,2.3,1.9,2.9,3.1c-0.1-0.2-4.5-1.9-5.3-2
			c0.2,0.9,0.3,1.8,0.6,2.8c-2.1-1.6-3-4.2-5.9-4.5C136,38.5,139,40.2,142.1,40.9z M135.6,41.8c0.3,0.2,2.5,2.7,2.5,0.1
			C138.1,40.4,135.9,41.8,135.6,41.8z M136.4,33.4c-0.8-1.3-1.8-2.3-3.2-2.9C133.3,32.8,134.4,34,136.4,33.4z M194.7,73.6
			c1.6,0.5,6-0.1,4.5-2.6C197.8,68.7,192.8,70.4,194.7,73.6z M158.6,54.7c0.7-1.2,1.8-0.8,1.7-2.6c3.1,1.1,4.4-1.7,6-3.9
			c-2.3-0.8-7.1-2.5-9.2-1C155.3,48.5,154.5,55.8,158.6,54.7z M148.7,58.1c5.2,0,6.2-4.7,1.2-6.9c3.8-1.2,0.8-3.5-1.3-4.2
			c-0.4-0.1-3.4,1.5-5.2,1.2c3.1,3.3,0.7,5.4-2.8,3.5C140.8,53.9,146.6,57,148.7,58.1z M136.2,51.1c0.9-3.1-3-3.7-4.8-2
			C133.1,50.7,134.4,51.9,136.2,51.1z M128.8,48.5C129,48.7,130.2,50.1,128.8,48.5L128.8,48.5z M117.9,28.2c2.7,0,5.3,0,8,0
			C124.5,25.2,120.1,26.1,117.9,28.2z M120.2,33.1c2.2,0,5.1-0.3,3.1-2.5c0.9-0.4,1.3,0,1.9-1.1c-2.6-0.3-5.2-0.1-7.4,1.3
			C118.3,32.3,119.1,32.6,120.2,33.1z M116.3,31.1c-0.7-1.4-0.9-2.4-3-2C113.8,30.9,114.7,30.7,116.3,31.1z M114,36.7
			c-3.2,0.9-6.4,4.2-4.1,6c2,1.6,9.3,0,11.7,0.2c-0.8,1-6.1,0-5.7,1.8c0.5,2.1,4.4,0.8,5.7,0.6c2.7-0.5,13-1.8,12.2-5.6
			c0.3,1.5-6.7-3.9-6.1-3.7c-3.3-1-4.5,0.9-2.8,3.9c0.6,0.3,1.6-0.1,1.9,0.6C127.1,41.6,115.7,37.2,114,36.7z M114.7,34.5
			c0.7,0.3,0.9,1.5,2.7,1.1c0-0.4-0.1-0.8-0.1-1.1C116.4,34.8,115.6,34.8,114.7,34.5z M105.8,39.3c-0.4,0.4-0.8,0.9-1.1,1.3
			c2.5,0,2,0.4,3.3-1.9C107.2,39,106.5,39.2,105.8,39.3z M109.3,36.5c1.9-0.6,2.8-2.1,3.1-4.2c-6.8-1.7-8.9,4.6-15.1,5.2
			c2.9,4.4,7.2,0.4,9.8-2C107.9,37.5,108.6,36.1,109.3,36.5z M110.9,65.7c4.8-0.4,5,2.1,8.7,3.1c3.7,1,6.6-1.6,9.9-2.2
			c2-0.4,15.3,1.8,10.6-1.9c1.9,0,2.5-1,3.6-1.5c-4.1-2.8-5.8-2.8-7.9-6.7c-0.8-1.5-4.3-8.9-7.1-5.4c-1.3,1.7,3.5,5.5-0.1,5.2
			c-1.8-0.2-1.7-5-5-5.1c0.4,0.7,0.7,1.5,1.1,2.2c-1.4,0.6-2.1,0.8-3.6,1.1c0.3-0.6,0.5-1.5,0.8-2.2c-2.5-0.9-4.8-0.5-6.3,0.4
			c1.1-4.2-2.9-2.2-4.9-1.3c-3.7,1.6-3.8,2.5-5.5,5.3c2.5,1,5.1-0.6,7.4,1.1c-1.8,0.2-3.6,0.8-4.9,1.9c2.5,1.3,10.5-0.7,11.9,1.6
			c0.5,0.8-8.8,1.3-10.3,2.1C109.8,64.3,110.4,65,110.9,65.7z M129.6,70.1c2-0.5,3.3-1,3.7-2.7c-2.1,0.4-4.2,1.1-5.9,2.2
			C128.1,69.8,128.9,70,129.6,70.1z M98.4,58c4,0.6,5.6-4.7,9-6.5c5.6-2.9,6.9-3.7-0.2-5.2c-1.8-0.4-11-2.5-13-0.9
			c-1.1,0.9-1.4,7.5-3.7,10.1c2.6,0.2,5,1.6,6,4C97.1,59.1,97.7,58.5,98.4,58z M5.2,98.5C2.8,95.5,0.4,98.9,5.2,98.5L5.2,98.5z
			 M42.8,96.1c0.5-3.6,5.3,0.8,7.7,1.5c3.2,0.9,6.2,0.3,9.3,1.3c5.4,1.8,9.2,6.7,14.7,7.7c0.5,1.1,0.9,2.3,1.8,3.1
			c0.3,0.3,2.6,1.4,2.9,1.9c1.9,2.8,3,5.6,4.6,7.8c2.9,3.9,4,4.2,8.1,6.7c3,1.8,6.5,4.8,6,8.9c-3.3-4.1-6.8-9.7-12.5-9.1
			c2.7,3.2,6.6,4.3,8.3,8.4c1.7,4.2-0.5,8.2-0.5,11.6c-0.1,6.4,3.2,15.4,7.6,20.3c2.5,2.8,6.5,2.9,8.8,6.5c1.9,2.9,3.5,6.5,5.3,9.5
			c0.6,0.9-0.7,1.4,0.6,3.4c0.8,1.2,3.1,2.3,4.2,3.4c0.8,0.8,4.4,5.1,4.7,6.7c3.5-3.5-10-15.9-10.4-20.9c3.8-0.5,8.1,8.1,10.9,11.1
			c3.6,3.8,6.8,9,10.4,13.1c-5.3,3.6,15.7,11.4,19.1,11.9c1,0.2,2.2-1.1,4.1-0.6c2.2,0.6,3.2,3,4.9,4c1.8,1.1,7.5,2,7.7,1.8
			c3.1,2.1,4.6,6.3,6.2,7.9c2.3,2.1,7.6,3.8,10.9,5.2c-0.9-5.7,5.3-0.5,5.5-2.4c0.5-3.7-7.8-1.4-10.1-2.9c-5.5-3.7,0.4-7.9-2.5-12
			c-2.4-3.5-8.6-0.7-11.6-2c2.6-2.9,6.6-12.1,0.9-11.7c-5.2,0.3-2.6,3.9-5.8,6.5c-2.9,2.3-7.6,0.8-9.9-1.2c-5-4.4-4.8-16.6-1.8-21.1
			c4.2-6.1,10.8-0.2,15.4-1.6c-1.1-3.8,3.2-3.3,5.9-3.1c-0.3,0,6.2,1.2,5.3,0.6c2,1.4,5.3,12,7.4,11.8c2.5-0.2-2-14.2,1.5-18.2
			c2.2-2.5,6.8-3.2,8.1-6.2c1.1-2.6-0.5-3.8-1.2-7c1.9,0.5,0.9-1,2.9,1c0.7-1.6,2.3-5.8,3.4-6.9c1.4-1.3,5.1-1.5,7.4-2.2
			c-3.4-6.5,9.6-11.1,14.4-10c-0.7-0.1-4.7,1.4-5.3,2.6c-1.7,3.5,3,0.5,3.2,0.5c4-0.5,8.6-3.6,9.8-7.1c-3.2,1.5-4.1,4.1-8.1,2
			c-5.2-2.8-0.2-5.3-1.4-7.2c-3.3-5.1-11.6,4.2-15.1,6.4c0.9-1.7,2.1-3.2,3.6-4.4c-0.8-0.2-1.7-0.4-2.6-0.7c4.4,1,6.9-4.5,10.6-5.6
			c2.5-0.7,5.9,0.2,8.5,0c3.9-0.4,3.5-0.8,6.9-2.3c3.1-1.3,7.9-1.7,6.5-5.6c-1.5-4-6.7-1.2-9.8-0.8c1.5-2.5,4.5-2,6.8-3.9
			c-3.9-0.6-7.5-2.1-9.7-5.6c2.4-1.5-4.5-8.9-5.7-11.6c-2,2.2-2,5.8-5.2,6.5c-3.1,0.7-2.7-2.5-6.1-1.6c2.2-7.5-3.9-10.1-9.7-11.5
			c-6.6-1.7-11,1.6-6.3,8.5c-0.5,0-1,0-1.6,0c-0.5,1.2-0.2,1.9-0.9,3.1c6.2,2.6,4.8,12-2.4,11.7c2,2.2,3.9,10.4-0.7,10.8
			c-4.4,0.3-5.4-8.2-5-11.5c-5.1-0.8-8.2-1.6-12.6-3.9c-2-1-4.2-1.7-6-2.4c-1.5-0.7-1.9,0.8-3.2-0.1c-1-0.6-1.2-2.8-1.8-3.6
			c-2.3-2.8-3.4-1.2-3-5.8c0.2-1.9,2-4.9,3.4-6.3c1.4-1.4,4.8-1.9,4.5-4c-0.3-1.4-5.8-2.2-6.9-2.6c2.9,0.3,8.3,3,9.1-0.7
			c3.4,2,5-0.3,5.9-3.1c-3.1,0.2-5.4-1.3-8.1-2.6c2,0.1,13.6,2.9,8.8-2.1c5.2-0.4,1.6,7.9-0.7,8.7c1.9,2,2.6,2.5,5.5,2.5
			c-0.2,0,2.6-1.3,3.5-1.5c1-0.2,2.1,1,2.9,0.9c6.4-1.1-6.2-5.5-7.3-7.9c2.9-0.1,1.1-0.1,2.3-1.6c4.4-0.3,6.4-4.1,3.5-7.7
			c6-1-1.4-4.9-3.6-5.9c3.7-0.6,7.6,1.2,11.5-0.2c-0.6-0.6-1.2-1.1-1.8-1.7c4.1,1.2,6.9,3.7,10.5,6.4c1.5,1.1,4.3,2.8,4.4,5.1
			c0.1,3.1-5.6,2.9-3.1,6.8c-2.1,0.5-9.8-1.2-9.4,2.6c0.3,3.7,5.9-0.3,7.3-0.2c4.5,0.6,4.8,3.7,7.7,6c2.8,2.3,7.3,2,10.7,3.8
			c0.1-2.8-4.2-4.2-5.8-6.7c3,1.4,5.9,2.9,8.7,4.6c0.4-0.7,1-3,1.2-3.8c-2.7-2.6-5.9-5-8.6-8.5c2-3,2.8-0.9,5.2,0.3
			c3.8,2,2.2,3.2,5.2,2.3c-0.2,0,3.8-3.2,3.7-3.1c1.3-2.4,1.5-0.6-0.2-2.8c-1.7-2.2-18.8-7-10.3-8.7c-0.8-0.2-1.7-0.5-2.6-0.7
			c0.7-0.5,0.6-0.6,1.6-1c-1.3-0.5-1.8-1.6-3.5-1.9c0.3-0.4,0.5-0.8,0.8-1.2c-3.1-0.7-4.6-1.4-7.5-2.1c0.5-0.3,1-0.7,1.5-1
			c-5.7-0.1-6-3.4-9.9-4.6c-3-0.9-8.8,2.4-10.1,1.7c-2-1,0.5-2.1-0.8-4c-2.2-3.2-1.9-2.8-5.5-2.1c-5.4,1-5.1,5.3-2.4,8.9
			c-5.7,0.7-4.9-7.7-0.8-9.7c-4.3-0.2-8.3,0.3-10.1,4.9c-2.3,6.3,2.3,3.4,4.6,6.7c-1.6-0.4-2.6,0.3-4.1,0.2c1.4,2,7.6,2.6,10.3,3.5
			c-1.6,0.7-2.5,11.7-6.8,9.4c-2-1,0.1-4.1,0-4.1c-1.7-1.9-3.3-1.2-3.9-1.5c-0.7-0.4-4-1.5-5.3-3.4c-1.8-2.6-2.3-9.9-7.7-6.1
			c-5.2,3.6,5.5,10.1-0.5,8.8c0.9,2.5,2.8,2.4,4.9,0.5c-0.1,3.8-5.1,2.5-3.6,6.9c-2.5-1.7-1.9-1-1.8-3.6c-2.4-0.6-0.4-0.1-1.7-1.9
			c0.5,0,0.9,0,1.4,0c0.1-2.5-1.5-4-4-4.5c-0.6,0.6-2.1,2.2-2.7,2.9c1.2,0.5,2.1,1.7,3.2,2.1c-2.7,4.8-7.9,2.6-12.3,1.6
			c-2.9-0.7-3.2-1.8-6-0.6c-4.1,1.7-2.2,2-2.8,6.2c-1.8-6.5-10.4-4.3-15.7-4.8c0.4-0.3,0.9-1.4,2.5-1.9c-2.6-2.1-11.3-4.6-14.3-5.2
			c-3.8-0.7-7.5,3.2-8.9-1.4c-1.1,3.7-1.9,1.4-3.6,1.3c-0.6,0-1.2-2.5-2.5-2.7c-1.8-0.2-0.7,1.1-1.6,1.3c-2,0.4-7.3,3.4-9.7,4.7
			c2-2.7,5.4-2.3,7.4-4.7c-3.8,0-8.2,2.1-12,2.9c-6.4,1.3-8.9-1.3-15.4-2c-4.9-0.5-9.3-1.5-14.4-2c-5.3-0.4-8.1-2.3-13.7-1.7
			c0.2-0.4,0.4-0.8,0.6-1.2c-3.4-0.6-8,1.5-11,2.5c-4.2,1.2-4.4,3.8-7.3,5.5c-4.1,2.5-7-0.2-3.7,4.2C8,73.6,12.5,74,14,77.6
			c-2.4,0.8-4.9,0.7-5-2c-2.7,1.9-5.7,1.2-7.9,3.9c2.9,1.2,2.9,3.6,5.3,4.2c2.9,0.7,6.6-1.2,9.3-1.5c0.4,8.2-9.1,2.4-10.5,9.6
			c-0.3,2,4.2,10.1,7,5.3c1.6,1.5,2,3.3,1.3,5.3c2.8-0.6,6,0.4,7.4-1.3c0.9,0,2,0.3,3.2,0.2c-2.1,9.4-12.8,7.8-17.8,13.6
			c7.2,1.8,19.3-9.3,25.5-12.8c-0.6-0.8-1.1-1.6-1.7-2.5c3.8-1.3,5.2-7.6,9.6-4.7c-3.1,0.4-4.8,2.2-3.9,5.2c2.3-1.4,4.8-2.5,7.5-2.7
			C43.2,97.1,43,96.5,42.8,96.1z M33.6,105.2c0-0.7,0-1.3,0-2c-2.3,1.6-5.6,2.1-3.7,5C31.4,107.6,32.7,106.6,33.6,105.2z"/>
	</g>
	
		<radialGradient id="SVGID_1_" cx="31.6208" cy="-1743.0129" r="31.1773" gradientTransform="matrix(0.8583 1.117179e-02 6.090000e-02 0.325 179.4814 667.9769)" gradientUnits="userSpaceOnUse">
		<stop  offset="0" style="stop-color:#949494"/>
		<stop  offset="1" style="stop-color:#FFFFFF"/>
	</radialGradient>
	<path class="st1" d="M127.2,102.2c1,5.6-10.1,10-24.9,9.8c-14.8-0.2-27.6-4.9-28.7-10.5c-1-5.6,10.1-10,24.9-9.8
		C113.4,92,126.2,96.6,127.2,102.2z"/>
	<path class="st2" d="M198.3,130.1c0,0,18.3-57.6,94.5-59.7c76.2-2.2,93.3,49.1,93.3,49.1"/>
	<path class="st2" d="M231.3,248.6c0,0,108.8-166.5,256.1-89.6"/>
	<path class="st2" d="M478.9,156.8c0,0-24.5-90.7-90.7-45.9c0,0-29.9-66.2-106.7-66.2s-140.6,88.7-140.6,88.7"/>
	<path class="st2" d="M204.7,136.5c0,0,35.4,6.3,19.8,109.8"/>
	<path class="st2" d="M215.3,239c0,0-47-179.3-89.6-115.2"/>
	<path class="st2" d="M134.6,130.5c0,0-13.2-98.5-35.6-39.8c0,0,136.6-89.6,286,25.6"/>
	<path class="st2" d="M403.1,369.1"/>
	<g>
		<g>
			<g>
				<g>
					<polygon class="st3" points="95.9,104.3 83.6,98.4 83.6,73 95.9,78.9 					"/>
					<polygon class="st4" points="95.9,78.9 108.2,73 108.2,98.4 95.9,104.3 					"/>
					<path class="st5" d="M95.9,67.2L83.6,73l12.3,5.9v-1.5L86.7,73l9.2-4.4V67.2z"/>
					<polygon class="st6" points="105.1,73 95.9,77.5 88.1,73.7 86.7,73 95.9,68.6 97.3,69.3 					"/>
				</g>
				<g>
					<polygon class="st3" points="108.2,96.5 108.2,110.2 105.6,109 105.1,108.8 99,105.8 98.6,105.6 95.9,104.3 95.9,90.6 					"/>
					<polygon class="st4" points="108.2,96.5 120.6,90.6 120.6,104.3 108.2,110.2 					"/>
					<polygon class="st6" points="120.6,90.6 108.2,96.5 95.9,90.6 108.2,84.7 					"/>
					<g>
						<polygon class="st7" points="105.1,100.5 105.1,108.8 100.5,106.6 99.8,106.2 99,105.8 99,97.5 						"/>
						<polygon class="st8" points="105.1,101.2 105.1,108.8 100.5,106.6 99.8,106.2 99.8,98.6 						"/>
					</g>
				</g>
				<g>
					<g>
						<polygon class="st5" points="95.9,78.9 108.2,73 95.9,67.2 95.9,68.6 105.1,73 95.9,77.5 						"/>
					</g>
				</g>
				<g>
					<g>
						<path class="st5" d="M108.2,86.2l9.2,4.4l-9.2,4.4v1.5l12.3-5.9l-12.3-5.9V86.2z"/>
						<g>
							<g>
								<polygon class="st5" points="108.2,95 99,90.6 108.2,86.2 108.2,84.7 95.9,90.6 108.2,96.5 								"/>
							</g>
						</g>
					</g>
				</g>
			</g>
			<g>
				<polygon class="st7" points="109.9,100.6 109.9,104.6 116.8,101.4 117.6,101 118.3,100.6 118.3,96.6 				"/>
				<polygon class="st8" points="109.9,101.4 109.9,104.6 116.8,101.4 117.6,101 117.6,97.7 				"/>
			</g>
			<g>
				<g>
					<polygon class="st7" points="86,76.3 86,97.8 85.5,97.5 85.5,76 					"/>
					<polygon class="st8" points="87.1,76.7 87.1,98.3 86,97.8 86,76.3 					"/>
				</g>
				<g>
					<polygon class="st7" points="89.1,77.5 89.1,99 88.6,98.8 88.6,77.3 					"/>
					<polygon class="st8" points="90.1,78 90.1,99.5 89.1,99 89.1,77.5 					"/>
				</g>
				<g>
					<polygon class="st7" points="92.2,78.8 92.2,100.3 91.7,100.1 91.7,78.6 					"/>
					<polygon class="st8" points="93.2,79.3 93.2,100.8 92.2,100.3 92.2,78.8 					"/>
				</g>
			</g>
		</g>
		<path class="st9" d="M95.9,68.6L86.7,73l1.4,0.7l9.2-4.4v0L95.9,68.6z"/>
		<g>
			<g>
				<g>
					<polygon class="st10" points="95.9,74.6 95.9,75.9 94.9,75.4 94.8,75.3 92.5,74.2 92.3,74.2 91.4,73.7 91.4,72.4 					"/>
					<polygon class="st5" points="95.9,74.6 100.4,72.4 100.4,73.7 95.9,75.9 					"/>
				</g>
				<g>
					<g>
						<g>
							<polygon class="st4" points="100.4,72.4 95.9,74.6 91.4,72.4 95.9,70.2 							"/>
						</g>
					</g>
				</g>
			</g>
		</g>
	</g>
	<path class="st2" d="M128.2,138.5c0,0,169.3-116.2,350.7,18.3"/>
	<g>
		
			<radialGradient id="SVGID_2_" cx="44.848" cy="-1747.765" r="26.5641" gradientTransform="matrix(0.8581 2.550000e-02 5.550000e-02 0.3935 189.7752 833.8735)" gradientUnits="userSpaceOnUse">
			<stop  offset="0" style="stop-color:#7A7A7A"/>
			<stop  offset="1" style="stop-color:#FFFFFF"/>
		</radialGradient>
		<path class="st11" d="M154.1,147.9c0.8,5.8-8.7,10.2-21.3,9.8c-12.6-0.4-23.5-5.4-24.3-11.1c-0.8-5.8,8.7-10.2,21.3-9.8
			C142.4,137.2,153.2,142.2,154.1,147.9z"/>
		<polygon class="st3" points="123.5,150.3 114.9,145.3 114.9,123.9 123.5,128.9 		"/>
		<polygon class="st4" points="123.5,128.9 136.8,121.2 136.8,142.6 123.5,150.3 		"/>
		<polygon class="st3" points="140.9,154.8 128.2,147.6 128.2,126.2 140.9,133.4 		"/>
		<polygon class="st4" points="140.9,133.4 149.5,128.4 149.5,149.8 140.9,154.8 		"/>
		<polygon class="st12" points="129.7,118.4 129.7,118.4 128.2,117.5 122.2,120.9 128.2,117.5 		"/>
		<polygon class="st12" points="123.5,127.6 123.5,127.6 128.2,124.9 128.2,124.9 		"/>
		<polygon class="st12" points="147.3,128.4 147.3,128.4 140.9,132.1 130.4,126.1 130.4,126.2 140.9,132.1 		"/>
		<polygon class="st6" points="147.3,128.4 136.8,122.4 136.8,122.4 129.7,118.3 129.7,118.4 129.7,118.4 128.2,117.5 122.2,120.9 
			117.1,123.9 123.5,127.6 123.5,127.6 128.2,124.9 128.2,124.9 130.4,126.1 140.9,132.1 		"/>
		<path class="st5" d="M149.5,128.4l-12.7-7.2l0,0l-8.6-5l-13.3,7.7l8.6,5l4.7-2.7l12.7,7.2L149.5,128.4z M130.4,126.2L130.4,126.2
			l-2.1-1.3l-4.7,2.7l0,0l0,0l-6.4-3.7l5.1-3l6-3.4l1.5,0.9l0,0l7.1,4.1v0.1l10.5,6l0,0l-6.4,3.7L130.4,126.2z"/>
		<polygon class="st7" points="121.4,143.2 121.4,149 117.6,146.8 117.1,146.5 117.1,140.7 		"/>
		<polygon class="st8" points="121.4,143.8 121.4,149 117.6,146.8 117.6,141.7 		"/>
		<polyline class="st13" points="128.2,127.8 140.9,135.1 148.3,130.7 148.3,132 140.9,136.3 128.2,129 		"/>
		<polyline class="st8" points="128.2,127.8 140.9,135.1 148.3,130.7 148.3,131.6 140.9,135.9 128.2,128.6 		"/>
		<polyline class="st13" points="128.2,130.5 140.9,137.7 148.3,133.4 148.3,134.7 140.9,139 128.2,131.7 		"/>
		<polyline class="st8" points="128.2,130.5 140.9,137.7 148.3,133.4 148.3,134.2 140.9,138.6 128.2,131.3 		"/>
		<polyline class="st13" points="128.2,133.2 140.9,140.4 148.3,136.1 148.3,137.4 140.9,141.7 128.2,134.4 		"/>
		<polyline class="st8" points="128.2,133.2 140.9,140.4 148.3,136.1 148.3,136.9 140.9,141.2 128.2,134 		"/>
		<polyline class="st13" points="128.2,135.8 140.9,143.1 148.3,138.8 148.3,140 140.9,144.4 128.2,137.1 		"/>
		<polyline class="st8" points="128.2,135.8 140.9,143.1 148.3,138.8 148.3,139.6 140.9,143.9 128.2,136.7 		"/>
		<polyline class="st13" points="128.2,138.5 140.9,145.8 148.3,141.5 148.3,142.7 140.9,147 128.2,139.8 		"/>
		<polyline class="st8" points="128.2,139.3 140.9,146.6 148.3,142.3 148.3,141.5 140.9,145.8 128.2,138.5 		"/>
		<path class="st9" d="M145.2,127.4c0,0,0.1-0.1,0.2-0.1l-8.5-4.8v-0.1l-7.1-4.1l0,0l0,0l-1.5-0.9l-6,3.4l-5.1,3l1,0.6l5-2.9l6-3.4
			l1.5,0.9l0,0l7.1,4.1v0.1L145.2,127.4z"/>
		<g>
			<g>
				<g>
					<g>
						<polygon class="st8" points="116.6,128.8 117.8,129.4 117.8,128.1 116.6,127.4 						"/>
					</g>
					<g>
						<polygon class="st8" points="116.6,131.1 117.8,131.8 117.8,130.5 116.6,129.8 						"/>
					</g>
					<g>
						<polygon class="st8" points="116.6,133.5 117.8,134.2 117.8,132.8 116.6,132.1 						"/>
					</g>
					<g>
						<polygon class="st8" points="116.6,135.9 117.8,136.5 117.8,135.2 116.6,134.5 						"/>
					</g>
				</g>
				<g>
					<g>
						<polygon class="st8" points="118.7,129.9 119.9,130.6 119.9,129.3 118.7,128.6 						"/>
					</g>
					<g>
						<polygon class="st8" points="118.7,132.3 119.9,133 119.9,131.6 118.7,130.9 						"/>
					</g>
					<g>
						<polygon class="st8" points="118.7,134.7 119.9,135.4 119.9,134 118.7,133.3 						"/>
					</g>
					<g>
						<polygon class="st8" points="118.7,137 119.9,137.7 119.9,136.4 118.7,135.7 						"/>
					</g>
				</g>
				<g>
					<g>
						<polygon class="st8" points="120.9,131.1 122.1,131.8 122.1,130.5 120.9,129.8 						"/>
					</g>
					<g>
						<polygon class="st8" points="120.9,133.5 122.1,134.2 122.1,132.8 120.9,132.1 						"/>
					</g>
					<g>
						<polygon class="st8" points="120.9,135.9 122.1,136.5 122.1,135.2 120.9,134.5 						"/>
					</g>
					<g>
						<polygon class="st8" points="120.9,138.2 122.1,138.9 122.1,137.6 120.9,136.9 						"/>
					</g>
				</g>
			</g>
		</g>
		<g>
			<polygon class="st7" points="117.8,128.4 117.8,128.1 116.6,127.4 116.6,128.8 116.8,128.9 116.8,127.9 			"/>
			<polygon class="st7" points="117.8,130.8 117.8,130.5 116.6,129.8 116.6,131.1 116.8,131.3 116.8,130.2 			"/>
			<polygon class="st7" points="117.8,133.2 117.8,132.8 116.6,132.1 116.6,133.5 116.8,133.6 116.8,132.6 			"/>
			<polygon class="st7" points="117.8,135.5 117.8,135.2 116.6,134.5 116.6,135.9 116.8,136 116.8,135 			"/>
			<polygon class="st7" points="119.9,129.6 119.9,129.3 118.7,128.6 118.7,129.9 119,130.1 119,129.1 			"/>
			<polygon class="st7" points="119.9,132 119.9,131.6 118.7,130.9 118.7,132.3 119,132.4 119,131.4 			"/>
			<polygon class="st7" points="119.9,134.3 119.9,134 118.7,133.3 118.7,134.7 119,134.8 119,133.8 			"/>
			<polygon class="st7" points="119.9,136.7 119.9,136.4 118.7,135.7 118.7,137 119,137.2 119,136.2 			"/>
			<polygon class="st7" points="122.1,130.8 122.1,130.5 120.9,129.8 120.9,131.1 121.1,131.3 121.1,130.2 			"/>
			<polygon class="st7" points="122.1,133.2 122.1,132.8 120.9,132.1 120.9,133.5 121.1,133.6 121.1,132.6 			"/>
			<polygon class="st7" points="122.1,135.5 122.1,135.2 120.9,134.5 120.9,135.9 121.1,136 121.1,135 			"/>
			<polygon class="st7" points="122.1,137.9 122.1,137.6 120.9,136.9 120.9,138.2 121.1,138.4 121.1,137.3 			"/>
		</g>
		<g>
			<g>
				<g>
					<polygon class="st10" points="123.4,125.4 123.4,126.5 122.7,126.1 122.6,126.1 121,125.1 120.9,125.1 120.2,124.7 
						120.2,123.6 					"/>
					<polygon class="st5" points="123.4,125.4 126.5,123.6 126.5,124.7 123.4,126.5 					"/>
				</g>
				<g>
					<g>
						<g>
							<polygon class="st4" points="126.5,123.6 123.4,125.4 120.2,123.6 123.4,121.8 							"/>
						</g>
					</g>
				</g>
			</g>
		</g>
	</g>
	<g>
		
			<radialGradient id="SVGID_3_" cx="223.9428" cy="-1636.8796" r="27.392" gradientTransform="matrix(0.8584 -6.600000e-03 7.010000e-02 0.3912 148.9031 898.8947)" gradientUnits="userSpaceOnUse">
			<stop  offset="0" style="stop-color:#7A7A7A"/>
			<stop  offset="1" style="stop-color:#FFFFFF"/>
		</radialGradient>
		<path class="st14" d="M249.9,256.9c1.1,5.9-8.6,10.8-21.6,10.9c-13,0.1-24.4-4.6-25.4-10.5c-1.1-5.9,8.6-10.8,21.6-10.9
			C237.5,246.3,248.8,251,249.9,256.9z"/>
		<g>
			<g>
				<g>
					<g>
						<g>
							<g>
								<g>
									<g>
										<g>
											<polygon class="st4" points="217.3,237.9 231.3,230 231.3,249.5 217.3,257.4 											"/>
										</g>
									</g>
									<g>
										<g>
											<polygon class="st5" points="231.3,230 217.3,238.1 208.7,233.2 222.7,225.1 											"/>
										</g>
									</g>
									<g>
										<g>
											<path class="st6" d="M210.6,233.2l6.7,3.8l12.1-7l-6.7-3.8L210.6,233.2z"/>
										</g>
									</g>
								</g>
							</g>
						</g>
						<g>
							<g>
								<g>
									<polygon class="st3" points="232.4,254.8 232.4,266.4 230.3,265.2 224.7,261.9 219.8,259.1 219.4,258.9 217.3,257.6 
										217.3,257.6 214.4,256 211.3,254.2 210.8,253.9 208.7,252.7 208.7,233.2 217.3,238.1 217.3,245.8 									"/>
								</g>
							</g>
						</g>
					</g>
				</g>
				<g>
					<g>
						<g>
							<polygon class="st3" points="239.9,254.1 239.9,265.7 237.7,264.5 236.7,263.9 232.4,261.5 232.4,254.8 236.7,252.3 
								236.7,252.3 							"/>
						</g>
					</g>
					<g>
						<g>
							<g>
								<polygon class="st4" points="236.7,252.3 236.7,263.9 232.4,266.4 232.4,254.8 236.7,252.3 								"/>
								<polygon class="st4" points="249.8,248.4 249.8,260 246.5,261.9 239.9,265.7 239.9,254.1 246.5,250.3 								"/>
							</g>
						</g>
						<polygon class="st5" points="249.8,248.4 239.9,254.1 236.7,252.3 236.7,252.3 232.4,254.8 217.3,245.8 231.3,237.7 						"/>
						<polygon class="st6" points="247.6,248.4 239.9,252.8 236.7,251 232.4,253.6 219.4,245.8 231.3,239 						"/>
					</g>
					<line class="st12" x1="236.7" y1="252.3" x2="236.7" y2="249.9"/>
					<g>
						<g>
							<g>
								<polygon class="st10" points="232.3,246.5 232.3,247.6 231.6,247.2 231.5,247.1 230,246.2 229.9,246.1 229.2,245.7 
									229.2,244.7 								"/>
								<polygon class="st5" points="232.3,246.5 235.5,244.7 235.5,245.7 232.3,247.6 								"/>
								<polygon class="st4" points="235.5,244.7 232.3,246.5 229.2,244.7 232.3,242.8 								"/>
							</g>
						</g>
					</g>
				</g>
				<g>
					<g>
						<polygon class="st3" points="223.4,254.7 223.4,257.6 219.2,255.2 218.8,254.9 218.3,254.7 218.3,251.7 						"/>
						<polygon class="st8" points="223.4,255.2 223.4,257.6 219.2,255.2 218.8,254.9 218.8,252.6 						"/>
					</g>
					<g>
						<polygon class="st3" points="229.5,257.9 229.5,260.8 225.3,258.4 224.8,258.1 224.4,257.9 224.4,254.9 						"/>
						<polygon class="st8" points="229.5,258.4 229.5,260.8 225.3,258.4 224.8,258.1 224.8,255.7 						"/>
					</g>
				</g>
				<g>
					<g>
						<polygon class="st3" points="243,257.2 243,260.1 247.2,257.7 247.6,257.5 248.1,257.2 248.1,254.3 						"/>
						<polygon class="st8" points="243,257.7 243,260.1 247.2,257.7 247.6,257.5 247.6,255.1 						"/>
					</g>
				</g>
			</g>
			<g>
				<g>
					<polygon class="st7" points="210.7,235.8 210.7,247.2 210.3,247 210.3,235.6 					"/>
					<polygon class="st8" points="211.4,236.2 211.4,247.6 210.7,247.2 210.7,235.8 					"/>
				</g>
				<g>
					<polygon class="st7" points="212.8,236.9 212.8,248.3 212.4,248.1 212.4,236.7 					"/>
					<polygon class="st8" points="213.5,237.3 213.5,248.7 212.8,248.3 212.8,236.9 					"/>
				</g>
				<g>
					<polygon class="st7" points="214.9,238 214.9,249.4 214.6,249.2 214.6,237.7 					"/>
					<polygon class="st8" points="215.6,238.4 215.6,249.8 214.9,249.4 214.9,238 					"/>
				</g>
			</g>
			<g>
				<polygon class="st15" points="214.2,250.7 214.2,256 211.5,254.5 211.1,254.2 211.1,249 				"/>
				<polygon class="st8" points="214.2,251.2 214.2,256 211.5,254.5 211.5,249.6 				"/>
			</g>
		</g>
	</g>
	<g>
		
			<radialGradient id="SVGID_4_" cx="343.0181" cy="-1810.1957" r="23.348" gradientTransform="matrix(0.8581 2.550000e-02 5.550000e-02 0.3935 189.7752 833.8735)" gradientUnits="userSpaceOnUse">
			<stop  offset="0" style="stop-color:#7A7A7A"/>
			<stop  offset="1" style="stop-color:#FFFFFF"/>
		</radialGradient>
		<path class="st16" d="M403.7,130.9c0.7,5.1-7.7,8.9-18.7,8.6c-11.1-0.3-20.6-4.7-21.3-9.8c-0.7-5.1,7.7-8.9,18.7-8.6
			C393.4,121.4,403,125.8,403.7,130.9z"/>
		<g>
			<g>
				<g>
					<g>
						<g>
							<g>
								<g>
									<polygon class="st4" points="390.2,117.2 390.1,116.4 377.9,109.4 377.3,109.7 374.8,112.9 375,113.4 387.3,120.8 
																			"/>
									<polygon class="st6" points="400.4,111.1 400.7,110.6 388.5,103.4 377.3,109.7 389.8,117 390.2,117.2 									"/>
									<g>
										<line class="st17" x1="388.7" y1="115.9" x2="388.9" y2="115.8"/>
									</g>
									<g>
										<polygon class="st4" points="400.7,110.6 400.7,130.8 387,138.5 386.5,138.2 386.3,127.7 386.5,127.5 386.3,120.4 
											386.9,120.2 389.7,116.9 										"/>
										<g>
											<polygon class="st3" points="387,120.2 387,138.5 374.8,131.3 374.8,125.6 375.2,125.6 375.3,125 375.1,124.6 
												374.8,124.5 374.8,123.1 375.3,123.2 375.3,122.6 375.1,122.2 374.8,122.1 374.8,120.9 374.8,120.9 374.8,120.8 
												375.2,120.9 375.3,120.2 375.1,119.9 374.8,119.7 374.8,118.3 375.2,118.4 375.3,117.8 375.1,117.4 374.8,117.3 
												374.8,115.9 375.3,116 375.3,115.4 375.1,115 374.8,114.8 374.8,112.9 											"/>
											<polygon class="st8" points="375.1,122.2 387,129.3 399.9,121.7 399.9,122.8 387,130.4 374.8,123.1 375.1,123 
																							"/>
											<polygon class="st18" points="386.9,130.1 387,130.1 399.6,122.6 399.9,122.8 387,130.4 											"/>
											<polygon class="st7" points="374.8,123.1 375.1,123 387,130.1 387,130.4 											"/>
											<polygon class="st13" points="399.9,122.8 399.9,121.7 399.6,121.8 399.6,122.6 											"/>
										</g>
										<g>
											<polygon class="st8" points="375.1,124.6 387,131.7 399.9,124.2 399.9,125.3 387,132.8 374.8,125.6 375.1,125.4 
																							"/>
											<polygon class="st18" points="386.9,132.6 386.9,132.5 399.6,125 399.9,125.3 386.9,132.8 											"/>
											<polygon class="st7" points="374.8,125.6 375.1,125.4 386.9,132.5 386.9,132.8 											"/>
											<polygon class="st13" points="399.9,125.3 399.9,124.1 399.6,124.3 399.6,125 											"/>
										</g>
										<g>
											<polygon class="st13" points="399.9,127.7 399.9,126.6 399.6,126.7 399.6,127.5 											"/>
										</g>
										<line class="st17" x1="386.9" y1="127.3" x2="387" y2="127.3"/>
									</g>
									<g>
										<g>
											<polygon class="st8" points="375.1,115 387,122.1 399.9,114.5 399.9,115.6 387,123.2 374.8,115.9 375.1,115.8 
																							"/>
											<polygon class="st18" points="386.9,122.9 387,122.9 399.6,115.4 399.9,115.6 387,123.2 											"/>
											<polygon class="st7" points="374.8,115.9 375.1,115.8 387,122.9 387,123.2 											"/>
											<polygon class="st13" points="399.9,115.6 399.9,114.5 399.6,114.6 399.6,115.4 											"/>
										</g>
										<g>
											<polygon class="st8" points="375.1,117.4 387,124.5 399.9,116.9 399.9,118 387,125.6 374.8,118.3 375.1,118.2 
																							"/>
											<polygon class="st18" points="386.9,125.4 386.9,125.3 399.6,117.8 399.9,118 386.9,125.6 											"/>
											<polygon class="st7" points="374.8,118.3 375.1,118.2 386.9,125.3 386.9,125.6 											"/>
											<polygon class="st13" points="399.9,118 399.9,116.9 399.6,117 399.6,117.8 											"/>
										</g>
										<g>
											<polygon class="st8" points="375.1,119.8 387,126.9 399.9,119.4 399.9,120.5 387,128 374.8,120.8 375.1,120.6 
																							"/>
											<polygon class="st18" points="386.9,127.8 386.9,127.7 399.6,120.3 399.9,120.5 386.9,128 											"/>
											<polygon class="st7" points="374.8,120.8 375.1,120.6 386.9,127.7 386.9,128 											"/>
											<polygon class="st13" points="399.9,120.5 399.9,119.4 399.6,119.5 399.6,120.3 											"/>
										</g>
										<line class="st17" x1="386.9" y1="120.1" x2="387" y2="120.1"/>
									</g>
								</g>
							</g>
						</g>
						<g>
							<g>
								<polygon class="st7" points="383.1,131.1 383.1,136.2 379,133.9 378.5,133.6 378.5,128.4 								"/>
								<polygon class="st8" points="383.1,131.8 383.1,136.2 379,133.9 379,129.4 								"/>
							</g>
						</g>
						<g>
							<g>
								<polygon class="st8" points="379.1,111.4 377.6,110.6 376,112.6 377.4,113.4 								"/>
								<polygon class="st8" points="381,112.5 379.6,111.7 378,113.7 379.3,114.6 								"/>
								<polygon class="st8" points="383,113.6 381.6,112.8 379.9,114.9 381.2,115.7 								"/>
								<polygon class="st8" points="385,114.7 383.5,113.9 381.8,116.1 383.2,116.9 								"/>
								<polygon class="st8" points="386.9,115.9 385.5,115 383.7,117.2 385.1,118 								"/>
								<polygon class="st8" points="388.9,117 387.5,116.2 385.7,118.4 387,119.2 								"/>
							</g>
						</g>
						<g>
							<polygon class="st7" points="377.4,113.4 377.7,113 376.4,112.2 376.3,112.2 376,112.6 							"/>
							<polygon class="st7" points="379.3,114.6 379.6,114.2 378.3,113.4 378.3,113.3 378,113.7 							"/>
							<polygon class="st7" points="381.2,115.7 381.6,115.3 380.3,114.5 380.2,114.5 379.9,114.9 							"/>
							<polygon class="st7" points="383.2,116.9 383.5,116.5 382.2,115.7 382.1,115.7 381.8,116.1 							"/>
							<polygon class="st7" points="385.1,118 385.4,117.6 384.1,116.8 384.1,116.8 383.7,117.2 							"/>
							<polygon class="st7" points="386,118 385.7,118.4 387,119.2 387.4,118.8 386,118 							"/>
						</g>
					</g>
				</g>
			</g>
			<g>
				<g>
					<g>
						<polygon class="st10" points="388.8,111.2 388.8,112.3 388.1,111.9 388,111.8 386.4,110.9 386.3,110.9 385.6,110.5 
							385.6,109.4 						"/>
						<polygon class="st5" points="388.8,111.2 392,109.4 392,110.5 388.8,112.3 						"/>
					</g>
					<g>
						<g>
							<g>
								<polygon class="st4" points="392,109.4 388.8,111.2 385.6,109.4 388.8,107.5 								"/>
							</g>
						</g>
					</g>
				</g>
			</g>
		</g>
	</g>
	<path class="st2" d="M487.4,161.1c0,0,53.4-115.2,136.6-51.2"/>
	<path class="st2" d="M637.9,113c0,0-25.6-70.4-200.6-70.4s-239,89.6-239,89.6"/>
	<g>
		
			<radialGradient id="SVGID_5_" cx="146.6332" cy="-1787.0168" r="20.6666" gradientTransform="matrix(0.8583 1.350000e-02 6.090000e-02 0.3927 179.4814 842.6686)" gradientUnits="userSpaceOnUse">
			<stop  offset="0" style="stop-color:#7A7A7A"/>
			<stop  offset="1" style="stop-color:#FFFFFF"/>
		</radialGradient>
		<path class="st19" d="M214.2,143.2c0.7,4.5-6.7,8-16.5,7.8c-9.8-0.2-18.3-3.9-19-8.4c-0.7-4.5,6.7-8,16.5-7.8
			C205,134.9,213.6,138.7,214.2,143.2z"/>
		<g>
			<g>
				<g>
					<g>
						<g>
							<polygon class="st3" points="188.9,141.5 182.9,138.1 182.9,118.5 189.1,122 							"/>
							<polygon class="st15" points="188.9,121.9 196.5,117.6 196.5,132.4 188.9,136.8 							"/>
							<path class="st5" d="M190.5,114.1l-7.6,4.3l6.6,3.8l0.3-0.7l-5.4-3.1l6.1-3.5V114.1z"/>
						</g>
						<polygon class="st8" points="183.7,132.9 183.7,119.8 188.1,122.3 188.1,135.5 						"/>
						<g>
							<g>
								
									<rect x="185.6" y="120.1" transform="matrix(0.4935 -0.8697 0.8697 0.4935 -13.0054 224.057)" class="st3" width="0.5" height="6.1"/>
							</g>
							<g>
								
									<rect x="185.6" y="122.4" transform="matrix(0.4935 -0.8697 0.8697 0.4935 -14.9427 225.1852)" class="st3" width="0.5" height="6.1"/>
							</g>
							<g>
								
									<rect x="185.6" y="124.6" transform="matrix(0.4935 -0.8697 0.8697 0.4935 -16.8801 226.3134)" class="st3" width="0.5" height="6.1"/>
							</g>
							<g>
								
									<rect x="185.6" y="126.8" transform="matrix(0.4935 -0.8697 0.8697 0.4935 -18.8203 227.4358)" class="st3" width="0.5" height="6.1"/>
							</g>
							<g>
								
									<rect x="185.6" y="129" transform="matrix(0.4935 -0.8697 0.8697 0.4935 -20.7573 228.5645)" class="st3" width="0.5" height="6.1"/>
							</g>
						</g>
						<g>
							<g>
								<polygon class="st5" points="196.5,117.6 188.9,121.9 188.9,121 195,117.6 190.5,115 190.5,114.1 								"/>
							</g>
						</g>
					</g>
					<g>
						<g>
							<g>
								<polygon class="st3" points="195.4,128.3 195.4,147.9 193.2,146.7 193,146.5 189.5,144.5 189,144.3 188.7,144.1 
									186.6,142.9 186.6,123.3 								"/>
								<polygon class="st4" points="195.4,128.3 205.3,122.6 205.9,141.3 195.4,147.9 								"/>
								<polygon class="st8" points="195.4,129.2 195.4,142.3 186.6,137.3 186.6,124.2 								"/>
								<polygon class="st7" points="195.4,129.2 204.6,123.9 204.6,137 195.4,142.3 								"/>
								<path class="st5" d="M196.5,117.6l-9.9,5.7l8.8,5v-0.9l-7.3-4.2l8.4-4.9V117.6z"/>
							</g>
						</g>
						<g>
							<g>
								<polygon class="st5" points="205.3,122.6 195.4,128.3 195.4,127.4 203.8,122.6 196.5,118.4 196.5,117.6 								"/>
							</g>
						</g>
					</g>
					<g>
						<g>
							<polygon class="st3" points="203.7,150 197.7,146.5 197.7,126.9 203.7,130.4 							"/>
							<polygon class="st4" points="203.7,130.4 211.3,126 211.3,145.6 203.7,150 							"/>
							<path class="st5" d="M205.3,122.6l-7.6,4.3l6,3.5v-0.9l-4.5-2.6l6.1-3.5V122.6z"/>
						</g>
						<polygon class="st8" points="197.7,141 197.7,127.9 202.9,130.8 202.9,143.9 						"/>
						<g>
							<g>
								<polygon class="st5" points="211.3,126 203.7,130.4 203.7,129.5 209.8,126 205.3,123.4 205.3,122.6 								"/>
							</g>
						</g>
					</g>
				</g>
				<g>
					<g>
						<polygon class="st6" points="209.8,126 203.7,129.5 197.7,126.1 195.4,127.4 188.1,123.3 190.4,121.9 184.4,118.5 190.5,115 
							196.5,118.4 196.6,118.5 203.8,122.6 203.8,122.6 						"/>
					</g>
				</g>
				<g>
					<g>
						<g>
							<g>
								<polygon class="st3" points="202.9,132.6 202.9,133.2 197.7,130.2 197.7,130.2 195.4,131.6 186.6,126.6 186.6,126 
									195.4,131 195.4,131 197.7,129.7 								"/>
							</g>
						</g>
						<g>
							<g>
								<polygon class="st3" points="202.9,134.9 202.9,135.4 197.7,132.5 197.7,132.5 195.4,133.8 186.6,128.8 186.6,128.2 
									195.4,133.2 195.4,133.2 197.7,131.9 								"/>
							</g>
						</g>
						<g>
							<g>
								<polygon class="st3" points="202.9,137.1 202.9,137.7 197.7,134.7 197.7,134.7 195.4,136 186.6,131 186.6,130.4 
									195.4,135.4 195.4,135.4 197.7,134.1 								"/>
							</g>
						</g>
						<g>
							<g>
								<polygon class="st3" points="202.9,139.3 202.9,139.9 197.7,136.9 197.7,136.9 195.4,138.2 186.6,133.2 186.6,132.7 
									195.4,137.7 195.4,137.7 197.7,136.3 								"/>
							</g>
						</g>
						<g>
							<g>
								<polygon class="st3" points="202.9,141.6 202.9,142.1 197.7,139.1 197.7,139.2 195.4,140.5 186.6,135.5 186.6,134.9 
									195.4,139.9 195.4,139.9 197.7,138.6 								"/>
							</g>
						</g>
					</g>
				</g>
			</g>
			<g>
				<g>
					<polygon class="st3" points="193,142.7 193,146.5 189.5,144.5 189,144.3 189,140.4 					"/>
					<polygon class="st8" points="193,143.3 193,146.5 189.5,144.5 189.5,141.3 					"/>
				</g>
			</g>
			<rect x="182.9" y="120.1" class="st3" width="0.8" height="13.6"/>
			<g>
				<g>
					<g>
						<polygon class="st10" points="190.3,119.8 190.3,120.8 189.7,120.4 189.6,120.3 188.1,119.5 188,119.4 187.4,119.1 
							187.4,118.1 						"/>
						<polygon class="st5" points="190.3,119.8 193.3,118.1 193.3,119.1 190.3,120.8 						"/>
					</g>
					<g>
						<g>
							<g>
								<polygon class="st4" points="193.3,118.1 190.3,119.8 187.4,118.1 190.3,116.4 								"/>
							</g>
						</g>
					</g>
				</g>
			</g>
			<g>
				<g>
					<g>
						<polygon class="st10" points="203.7,126.9 203.7,127.9 203,127.5 202.9,127.4 201.5,126.6 201.4,126.5 200.7,126.2 
							200.7,125.2 						"/>
						<polygon class="st5" points="203.7,126.9 206.6,125.2 206.6,126.2 203.7,127.9 						"/>
					</g>
					<g>
						<g>
							<g>
								<polygon class="st4" points="206.6,125.2 203.7,126.9 200.7,125.2 203.7,123.5 								"/>
							</g>
						</g>
					</g>
				</g>
			</g>
		</g>
	</g>
	<g>
		
			<radialGradient id="SVGID_6_" cx="446.1304" cy="-1707.7164" r="25.5944" gradientTransform="matrix(0.8581 2.550000e-02 5.550000e-02 0.3935 189.7752 833.8735)" gradientUnits="userSpaceOnUse">
			<stop  offset="0" style="stop-color:#7A7A7A"/>
			<stop  offset="1" style="stop-color:#FFFFFF"/>
		</radialGradient>
		<path class="st20" d="M499.8,173.9c0.8,5.6-8.4,9.8-20.5,9.4c-12.1-0.4-22.6-5.2-23.4-10.7c-0.8-5.6,8.4-9.8,20.5-9.4
			C488.5,163.6,499,168.4,499.8,173.9z"/>
		<g>
			<g>
				<polygon class="st5" points="495.9,152.1 495.9,152.1 487.1,157.2 478.2,152.1 469.4,157.2 460.5,152.1 460.5,152.1 
					478.2,141.8 				"/>
				<polygon class="st6" points="463,152.1 478.2,143.3 493.4,152.1 487.1,155.7 478.2,150.6 469.4,155.7 				"/>
				<g>
					<g>
						<polygon class="st3" points="460.5,152.1 460.5,174 469.4,179.1 469.4,157.2 						"/>
						<polygon class="st4" points="478.2,152.1 478.2,174 469.4,179.1 469.4,157.2 						"/>
						<polygon class="st3" points="478.2,152.1 478.2,174 487.1,179.1 487.1,157.2 						"/>
						<polygon class="st4" points="487.1,179.1 495.9,174 495.9,152.1 487.1,157.2 						"/>
						<path class="st21" d="M487.1,157.2"/>
					</g>
					<g>
						<g>
							<polygon class="st13" points="464.5,170.9 464.5,172.4 462.3,171.1 462,170.9 462,169.5 							"/>
							<polygon class="st8" points="464.5,171.3 464.5,172.4 462.3,171.1 462.3,170 							"/>
						</g>
						<g>
							<polygon class="st13" points="468,172.9 468,174.4 465.7,173.1 465.4,172.9 465.4,171.4 							"/>
							<polygon class="st8" points="468,173.3 468,174.4 465.7,173.1 465.7,172 							"/>
						</g>
					</g>
					<g>
						<g>
							<polygon class="st13" points="491.9,170.9 491.9,172.4 494.2,171.1 494.5,170.9 494.5,169.5 							"/>
							<polygon class="st8" points="491.9,171.3 491.9,172.4 494.2,171.1 494.2,170 							"/>
						</g>
						<g>
							<polygon class="st13" points="488.5,172.9 488.5,174.4 490.7,173.1 491,172.9 491,171.4 							"/>
							<polygon class="st8" points="488.5,173.3 488.5,174.4 490.7,173.1 490.7,172 							"/>
						</g>
					</g>
				</g>
				<g>
					<g>
						<polygon class="st13" points="494.7,154.5 494.7,155.8 487.1,160.2 478.2,155.1 469.4,160.2 461.7,155.8 461.7,154.5 
							469.4,158.9 478.2,153.8 487.1,158.9 						"/>
					</g>
					<g>
						<g>
							<polygon class="st8" points="494.7,154.5 494.7,155.3 487.1,159.8 478.2,154.7 469.4,159.8 461.7,155.3 461.7,154.5 
								469.4,158.9 478.2,153.8 487.1,158.9 							"/>
						</g>
					</g>
				</g>
				<g>
					<g>
						<polygon class="st13" points="494.7,157.2 494.7,158.5 487.1,163 478.2,157.9 469.4,163 461.7,158.5 461.7,157.2 469.4,161.7 
							478.2,156.6 487.1,161.7 						"/>
					</g>
					<g>
						<g>
							<polygon class="st8" points="494.7,157.2 494.7,158.1 487.1,162.5 478.2,157.4 469.4,162.5 461.7,158.1 461.7,157.2 
								469.4,161.7 478.2,156.6 487.1,161.7 							"/>
						</g>
					</g>
				</g>
				<g>
					<g>
						<polygon class="st13" points="494.7,160 494.7,161.3 487.1,165.7 478.2,160.6 469.4,165.7 461.7,161.3 461.7,160 469.4,164.4 
							478.2,159.3 487.1,164.4 						"/>
					</g>
					<g>
						<g>
							<polygon class="st8" points="494.7,160 494.7,160.8 487.1,165.3 478.2,160.2 469.4,165.3 461.7,160.8 461.7,160 469.4,164.4 
								478.2,159.3 487.1,164.4 							"/>
						</g>
					</g>
				</g>
				<g>
					<g>
						<polygon class="st13" points="494.7,162.8 494.7,164 487.1,168.5 478.2,163.4 469.4,168.5 461.7,164 461.7,162.8 469.4,167.2 
							478.2,162.1 487.1,167.2 						"/>
					</g>
					<g>
						<g>
							<polygon class="st8" points="494.7,162.8 494.7,163.6 487.1,168 478.2,162.9 469.4,168 461.7,163.6 461.7,162.8 469.4,167.2 
								478.2,162.1 487.1,167.2 							"/>
						</g>
					</g>
				</g>
				<g>
					<g>
						<polygon class="st13" points="494.7,165.5 494.7,166.8 487.1,171.2 478.2,166.1 469.4,171.2 461.7,166.8 461.7,165.5 
							469.4,170 478.2,164.8 487.1,170 						"/>
					</g>
					<g>
						<g>
							<polygon class="st8" points="494.7,165.5 494.7,166.4 487.1,170.8 478.2,165.7 469.4,170.8 461.7,166.4 461.7,165.5 
								469.4,170 478.2,164.8 487.1,170 							"/>
						</g>
					</g>
				</g>
			</g>
			<g>
				<g>
					<g>
						<g>
							<polygon class="st10" points="487.1,153.2 487.1,154.3 486.4,153.9 486.2,153.8 484.6,152.9 484.5,152.8 483.8,152.4 
								483.8,151.3 							"/>
							<polygon class="st5" points="487.1,153.2 490.3,151.3 490.3,152.4 487.1,154.3 							"/>
						</g>
						<g>
							<g>
								<g>
									<g>
										<polygon class="st4" points="490.3,151.3 487.1,153.2 483.8,151.3 487.1,149.4 										"/>
									</g>
								</g>
							</g>
						</g>
					</g>
				</g>
				<g>
					<g>
						<g>
							<polygon class="st10" points="469.8,153.4 469.8,154.5 469.1,154.1 469,154 467.4,153.1 467.3,153 466.6,152.6 466.6,151.5 
															"/>
							<polygon class="st5" points="469.8,153.4 473.1,151.5 473.1,152.6 469.8,154.5 							"/>
						</g>
						<g>
							<g>
								<g>
									<g>
										<polygon class="st4" points="473.1,151.5 469.8,153.4 466.6,151.5 469.8,149.6 										"/>
									</g>
								</g>
							</g>
						</g>
					</g>
				</g>
			</g>
			<polygon class="st9" points="479,143.7 463.8,152.5 463,152.1 478.2,143.3 			"/>
		</g>
	</g>
	<g>
		
			<radialGradient id="SVGID_7_" cx="654.549" cy="-1831.65" r="20.6666" gradientTransform="matrix(0.8583 1.350000e-02 6.090000e-02 0.3927 179.4814 842.6686)" gradientUnits="userSpaceOnUse">
			<stop  offset="0" style="stop-color:#7A7A7A"/>
			<stop  offset="1" style="stop-color:#FFFFFF"/>
		</radialGradient>
		<path class="st22" d="M647.5,132.5c0.7,4.5-6.7,8-16.5,7.8c-9.8-0.2-18.3-3.9-19-8.4c-0.7-4.5,6.7-8,16.5-7.8
			C638.3,124.3,646.8,128,647.5,132.5z"/>
		<g>
			<g>
				<g>
					<g>
						<g>
							<polygon class="st3" points="622.1,130.8 616.1,127.4 616.1,107.8 622.3,111.3 							"/>
							<polygon class="st15" points="622.1,111.2 629.7,106.9 629.7,121.8 622.1,126.1 							"/>
							<path class="st5" d="M623.7,103.4l-7.6,4.3l6.6,3.8l0.3-0.7l-5.4-3.1l6.1-3.5V103.4z"/>
						</g>
						<polygon class="st8" points="616.9,122.2 616.9,109.1 621.4,111.7 621.4,124.8 						"/>
						<g>
							<g>
								
									<rect x="618.9" y="109.5" transform="matrix(0.4935 -0.8697 0.8697 0.4935 215.6934 595.443)" class="st3" width="0.5" height="6.1"/>
							</g>
							<g>
								
									<rect x="618.9" y="111.7" transform="matrix(0.4935 -0.8697 0.8697 0.4935 213.7561 596.5712)" class="st3" width="0.5" height="6.1"/>
							</g>
							<g>
								
									<rect x="618.9" y="113.9" transform="matrix(0.4935 -0.8697 0.8697 0.4935 211.8187 597.6993)" class="st3" width="0.5" height="6.1"/>
							</g>
							<g>
								
									<rect x="618.9" y="116.1" transform="matrix(0.4935 -0.8697 0.8697 0.4935 209.8676 598.816)" class="st3" width="0.5" height="6.1"/>
							</g>
							<g>
								
									<rect x="618.9" y="118.4" transform="matrix(0.4935 -0.8697 0.8697 0.4935 207.9317 599.9453)" class="st3" width="0.5" height="6.1"/>
							</g>
						</g>
						<g>
							<g>
								<polygon class="st5" points="629.7,106.9 622.1,111.2 622.1,110.4 628.2,106.9 623.7,104.3 623.7,103.4 								"/>
							</g>
						</g>
					</g>
					<g>
						<g>
							<g>
								<polygon class="st3" points="628.6,117.6 628.6,137.2 626.5,136 626.2,135.9 622.7,133.9 622.2,133.6 622,133.4 
									619.8,132.2 619.8,112.6 								"/>
								<polygon class="st4" points="628.6,117.6 638.5,111.9 639.1,130.7 628.6,137.2 								"/>
								<polygon class="st8" points="628.6,118.5 628.6,131.6 619.8,126.6 619.8,113.5 								"/>
								<polygon class="st7" points="628.6,118.5 637.8,113.2 637.8,126.3 628.6,131.6 								"/>
								<path class="st5" d="M629.7,106.9l-9.9,5.7l8.8,5v-0.9l-7.3-4.2l8.4-4.9V106.9z"/>
							</g>
						</g>
						<g>
							<g>
								<polygon class="st5" points="638.5,111.9 628.6,117.6 628.6,116.8 637,111.9 629.7,107.7 629.7,106.9 								"/>
							</g>
						</g>
					</g>
					<g>
						<g>
							<polygon class="st3" points="636.9,139.3 630.9,135.9 630.9,116.3 636.9,119.7 							"/>
							<polygon class="st4" points="636.9,119.7 644.5,115.4 644.5,135 636.9,139.3 							"/>
							<path class="st5" d="M638.5,111.9l-7.6,4.3l6,3.5v-0.9l-4.5-2.6l6.1-3.5V111.9z"/>
						</g>
						<polygon class="st8" points="630.9,130.3 630.9,117.2 636.2,120.1 636.2,133.3 						"/>
						<g>
							<g>
								<polygon class="st5" points="644.5,115.4 636.9,119.7 636.9,118.8 643,115.4 638.5,112.8 638.5,111.9 								"/>
							</g>
						</g>
					</g>
				</g>
				<g>
					<g>
						<polygon class="st6" points="643,115.4 636.9,118.8 631,115.4 628.6,116.8 621.3,112.6 623.7,111.3 617.6,107.8 623.8,104.3 
							629.7,107.7 629.8,107.8 637,111.9 637,111.9 						"/>
					</g>
				</g>
				<g>
					<g>
						<g>
							<g>
								<polygon class="st3" points="636.2,122 636.2,122.5 630.9,119.6 630.9,119.6 628.6,120.9 619.8,115.9 619.8,115.3 
									628.6,120.3 628.6,120.3 630.9,119 								"/>
							</g>
						</g>
						<g>
							<g>
								<polygon class="st3" points="636.2,124.2 636.2,124.8 630.9,121.8 630.9,121.8 628.6,123.1 619.8,118.1 619.8,117.5 
									628.6,122.5 628.6,122.5 630.9,121.2 								"/>
							</g>
						</g>
						<g>
							<g>
								<polygon class="st3" points="636.2,126.4 636.2,127 630.9,124 630.9,124 628.6,125.4 619.8,120.3 619.8,119.8 628.6,124.8 
									628.6,124.8 630.9,123.4 								"/>
							</g>
						</g>
						<g>
							<g>
								<polygon class="st3" points="636.2,128.7 636.2,129.2 630.9,126.2 630.9,126.3 628.6,127.6 619.8,122.6 619.8,122 
									628.6,127 628.6,127 630.9,125.7 								"/>
							</g>
						</g>
						<g>
							<g>
								<polygon class="st3" points="636.2,130.9 636.2,131.5 630.9,128.5 630.9,128.5 628.6,129.8 619.8,124.8 619.8,124.2 
									628.6,129.2 628.6,129.2 630.9,127.9 								"/>
							</g>
						</g>
					</g>
				</g>
			</g>
			<g>
				<g>
					<polygon class="st3" points="626.2,132 626.2,135.9 622.7,133.9 622.2,133.6 622.2,129.7 					"/>
					<polygon class="st8" points="626.2,132.6 626.2,135.9 622.7,133.9 622.7,130.6 					"/>
				</g>
			</g>
			<rect x="616.1" y="109.4" class="st3" width="0.8" height="13.6"/>
			<g>
				<g>
					<g>
						<polygon class="st10" points="623.6,109.1 623.6,110.1 622.9,109.7 622.8,109.7 621.4,108.8 621.3,108.8 620.6,108.4 
							620.6,107.4 						"/>
						<polygon class="st5" points="623.6,109.1 626.5,107.4 626.5,108.4 623.6,110.1 						"/>
					</g>
					<g>
						<g>
							<g>
								<polygon class="st4" points="626.5,107.4 623.6,109.1 620.6,107.4 623.6,105.7 								"/>
							</g>
						</g>
					</g>
				</g>
			</g>
			<g>
				<g>
					<g>
						<polygon class="st10" points="636.9,116.2 636.9,117.2 636.3,116.8 636.1,116.8 634.7,115.9 634.6,115.9 634,115.5 634,114.5 
													"/>
						<polygon class="st5" points="636.9,116.2 639.8,114.5 639.8,115.5 636.9,117.2 						"/>
					</g>
					<g>
						<g>
							<g>
								<polygon class="st4" points="639.8,114.5 636.9,116.2 634,114.5 636.9,112.8 								"/>
							</g>
						</g>
					</g>
				</g>
			</g>
		</g>
	</g>
</g>
<g>
</g>
<g>
</g>
<g>
</g>
<g>
</g>
<g>
</g>
<g>
</g>
<g>
</g>
<g>
</g>
<g>
</g>
<g>
</g>
<g>
</g>
<g>
</g>
<g>
</g>
<g>
</g>
<g>
</g>
</svg>
